<svg width="334" height="64" viewBox="0 0 334 64" fill="none" xmlns="http://www.w3.org/2000/svg">
<path d="M119.572 47.3043L119.53 29.7738L110.795 44.2156H107.7L99.0075 30.1495V47.3043H92.5625V18.0869H98.2443L109.353 36.2434L120.293 18.0869H125.932L126.017 47.3043H119.572Z" fill="white" fill-opacity="0.8"/>
<path d="M154.938 36.1599C154.938 36.2434 154.896 36.8277 154.811 37.913H137.554C137.865 39.3043 138.6 40.4034 139.759 41.2103C140.918 42.0173 142.359 42.4208 144.084 42.4208C145.271 42.4208 146.317 42.2538 147.221 41.9199C148.154 41.5582 149.016 41.0017 149.808 40.2503L153.327 44.0069C151.179 46.4277 148.041 47.6382 143.914 47.6382C141.342 47.6382 139.066 47.1512 137.087 46.1773C135.109 45.1756 133.582 43.7982 132.508 42.0451C131.434 40.2921 130.897 38.3025 130.897 36.0764C130.897 33.8782 131.42 31.9025 132.466 30.1495C133.54 28.3686 134.996 26.9912 136.833 26.0173C138.699 25.0156 140.776 24.5147 143.066 24.5147C145.299 24.5147 147.32 24.9877 149.129 25.9338C150.938 26.8799 152.352 28.2434 153.369 30.0243C154.415 31.7773 154.938 33.8225 154.938 36.1599ZM143.108 29.4399C141.61 29.4399 140.352 29.8573 139.335 30.6921C138.317 31.5269 137.695 32.6677 137.469 34.1147H148.705C148.479 32.6956 147.857 31.5686 146.84 30.7338C145.822 29.8712 144.578 29.4399 143.108 29.4399Z" fill="white" fill-opacity="0.8"/>
<path d="M174.055 46.219C173.405 46.6921 172.6 47.0538 171.639 47.3043C170.706 47.5269 169.716 47.6382 168.67 47.6382C165.957 47.6382 163.851 46.9564 162.353 45.593C160.883 44.2295 160.148 42.226 160.148 39.5825V30.3582H156.628V25.3495H160.148V19.8817H166.762V25.3495H172.444V30.3582H166.762V39.499C166.762 40.4451 167.003 41.1825 167.483 41.7112C167.992 42.2121 168.699 42.4625 169.603 42.4625C170.649 42.4625 171.54 42.1843 172.275 41.6277L174.055 46.219Z" fill="white" fill-opacity="0.8"/>
<path d="M186.97 24.5147C190.503 24.5147 193.217 25.3495 195.111 27.019C197.005 28.6608 197.952 31.1512 197.952 34.4903V47.3043H191.761V44.5077C190.517 46.5947 188.199 47.6382 184.807 47.6382C183.055 47.6382 181.528 47.346 180.228 46.7617C178.956 46.1773 177.98 45.3704 177.302 44.3408C176.624 43.3112 176.284 42.1425 176.284 40.8347C176.284 38.7477 177.076 37.106 178.659 35.9095C180.27 34.713 182.744 34.1147 186.079 34.1147H191.337C191.337 32.6956 190.899 31.6103 190.023 30.859C189.146 30.0799 187.832 29.6904 186.079 29.6904C184.864 29.6904 183.662 29.8851 182.475 30.2747C181.316 30.6364 180.327 31.1373 179.507 31.7773L177.132 27.2277C178.376 26.3651 179.86 25.6973 181.585 25.2243C183.337 24.7512 185.132 24.5147 186.97 24.5147ZM186.461 43.2556C187.591 43.2556 188.595 43.0051 189.471 42.5043C190.348 41.9756 190.969 41.2104 191.337 40.2086V37.913H186.8C184.086 37.913 182.729 38.7895 182.729 40.5425C182.729 41.3773 183.055 42.0451 183.705 42.546C184.383 43.019 185.302 43.2556 186.461 43.2556Z" fill="white" fill-opacity="0.8"/>
<path d="M227.386 41.8782V47.3043H204.405V18.0869H226.835V23.513H211.231V29.8573H225.012V35.1164H211.231V41.8782H227.386Z" fill="white" fill-opacity="0.8"/>
<path d="M255.456 16.3338V47.3043H249.138V44.7164C247.498 46.6643 245.124 47.6382 242.014 47.6382C239.866 47.6382 237.915 47.1651 236.163 46.219C234.439 45.273 233.082 43.9234 232.092 42.1703C231.103 40.4173 230.608 38.386 230.608 36.0764C230.608 33.7669 231.103 31.7356 232.092 29.9825C233.082 28.2295 234.439 26.8799 236.163 25.9338C237.915 24.9877 239.866 24.5147 242.014 24.5147C244.926 24.5147 247.201 25.419 248.841 27.2277V16.3338H255.456ZM243.159 42.2956C244.827 42.2956 246.212 41.739 247.314 40.626C248.417 39.4851 248.968 37.9686 248.968 36.0764C248.968 34.1843 248.417 32.6817 247.314 31.5686C246.212 30.4277 244.827 29.8573 243.159 29.8573C241.463 29.8573 240.064 30.4277 238.961 31.5686C237.859 32.6817 237.308 34.1843 237.308 36.0764C237.308 37.9686 237.859 39.4851 238.961 40.626C240.064 41.739 241.463 42.2956 243.159 42.2956Z" fill="white" fill-opacity="0.8"/>
<path d="M261.578 24.8486H268.192V47.3043H261.578V24.8486ZM264.885 21.7182C263.669 21.7182 262.68 21.3703 261.917 20.6747C261.154 19.979 260.772 19.1164 260.772 18.0869C260.772 17.0573 261.154 16.1947 261.917 15.499C262.68 14.8034 263.669 14.4556 264.885 14.4556C266.1 14.4556 267.09 14.7895 267.853 15.4573C268.616 16.1251 268.998 16.9599 268.998 17.9617C268.998 19.0469 268.616 19.9512 267.853 20.6747C267.09 21.3703 266.1 21.7182 264.885 21.7182Z" fill="white" fill-opacity="0.8"/>
<path d="M289.044 46.219C288.394 46.6921 287.589 47.0538 286.628 47.3043C285.695 47.5269 284.705 47.6382 283.659 47.6382C280.946 47.6382 278.84 46.9564 277.342 45.593C275.872 44.2295 275.137 42.226 275.137 39.5825V30.3582H271.617V25.3495H275.137V19.8817H281.751V25.3495H287.433V30.3582H281.751V39.499C281.751 40.4451 281.992 41.1825 282.472 41.7112C282.981 42.2121 283.688 42.4625 284.592 42.4625C285.638 42.4625 286.529 42.1843 287.264 41.6277L289.044 46.219Z" fill="white" fill-opacity="0.8"/>
<path d="M302.908 47.6382C300.506 47.6382 298.343 47.1512 296.421 46.1773C294.527 45.1756 293.043 43.7982 291.969 42.0451C290.895 40.2921 290.358 38.3025 290.358 36.0764C290.358 33.8503 290.895 31.8608 291.969 30.1077C293.043 28.3547 294.527 26.9912 296.421 26.0173C298.343 25.0156 300.506 24.5147 302.908 24.5147C305.311 24.5147 307.459 25.0156 309.353 26.0173C311.247 26.9912 312.731 28.3547 313.805 30.1077C314.88 31.8608 315.417 33.8503 315.417 36.0764C315.417 38.3025 314.88 40.2921 313.805 42.0451C312.731 43.7982 311.247 45.1756 309.353 46.1773C307.459 47.1512 305.311 47.6382 302.908 47.6382ZM302.908 42.2956C304.604 42.2956 305.989 41.739 307.064 40.626C308.166 39.4851 308.717 37.9686 308.717 36.0764C308.717 34.1843 308.166 32.6817 307.064 31.5686C305.989 30.4277 304.604 29.8573 302.908 29.8573C301.212 29.8573 299.813 30.4277 298.711 31.5686C297.608 32.6817 297.057 34.1843 297.057 36.0764C297.057 37.9686 297.608 39.4851 298.711 40.626C299.813 41.739 301.212 42.2956 302.908 42.2956Z" fill="white" fill-opacity="0.8"/>
<path d="M326.156 27.8121C326.947 26.7269 328.007 25.906 329.336 25.3495C330.693 24.793 332.248 24.5147 334 24.5147V30.5251C333.265 30.4695 332.771 30.4417 332.516 30.4417C330.622 30.4417 329.138 30.9703 328.064 32.0277C326.99 33.0573 326.453 34.6156 326.453 36.7025V47.3043H319.838V24.8486H326.156V27.8121Z" fill="white" fill-opacity="0.8"/>
<path d="M60.5829 16.0001V48.0001L32.508 62.5455L4.43311 48.0001V16.0001L6.22103 15.0765L32.508 28.3637L58.4773 14.9092L60.5829 16.0001Z" fill="#6499F3"/>
<path d="M4.43311 16L32.508 30.5455L60.5829 16L32.508 1.45459L4.43311 16Z" fill="#8BB7F7"/>
<path d="M60.5827 16V48L32.5078 62.5455V30.5455L60.5827 16Z" fill="#2D64BC"/>
</svg>
