<svg width="300" height="300" viewBox="0 0 300 300" fill="none" xmlns="http://www.w3.org/2000/svg">
<path d="M278.032 212.546C244.906 179.419 244.906 125.52 278.032 92.393L292.187 78.2385C296.099 74.3262 298.254 69.1248 298.254 63.5924C298.254 58.06 296.099 52.8586 292.187 48.9463L254.246 11.0057C250.334 7.09336 245.132 4.93887 239.599 4.93887C234.066 4.93887 228.866 7.09336 224.954 11.0057L206.638 29.3209C202.65 33.3088 198.042 31.8387 196.725 31.2926C195.407 30.7471 191.11 28.5281 191.11 22.8885V14.751C191.11 6.61699 184.493 0 176.359 0H123.894C115.76 0 109.143 6.61699 109.143 14.751V22.8891C109.143 28.5287 104.846 30.7477 103.528 31.2932C102.211 31.8387 97.6045 33.31 93.6148 29.3209L75.2996 11.0063C71.3873 7.09395 66.1859 4.93945 60.6535 4.93945C55.1211 4.93945 49.9197 7.09336 46.008 11.0057L8.0668 48.9463C4.15449 52.8586 2 58.06 2 63.5924C2 69.1248 4.15449 74.3262 8.0668 78.2385L22.2213 92.393C55.3473 125.52 55.3473 179.419 22.2213 212.546L8.0668 226.7C-0.00917963 234.776 -0.00917963 247.917 8.0668 255.993L46.008 293.933C49.9197 297.846 55.1211 300 60.6541 300C66.1871 300 71.3879 297.846 75.2996 293.933L102.639 266.593C106.062 263.17 110.769 261.626 115.557 262.355C120.342 263.084 124.377 265.962 126.624 270.249L137.063 290.16C139.618 295.033 144.624 298.061 150.127 298.061C155.63 298.061 160.636 295.033 163.191 290.159L173.629 270.249C175.877 265.962 179.911 263.084 184.696 262.355C189.487 261.626 194.191 263.17 197.614 266.593L224.953 293.933C228.866 297.846 234.067 300 239.599 300C245.132 300 250.333 297.846 254.246 293.933L292.187 255.993C300.263 247.917 300.263 234.776 292.187 226.7L278.032 212.546ZM158.826 235.624C157.727 236.367 156.647 237.162 155.616 237.987C154.012 239.27 152.069 239.912 150.127 239.912C148.184 239.912 146.242 239.271 144.637 237.987C143.606 237.162 142.527 236.367 141.427 235.624C137.407 232.904 136.353 227.439 139.072 223.419C141.541 219.771 146.268 218.566 150.126 220.405C153.985 218.564 158.711 219.771 161.18 223.419C163.901 227.439 162.846 232.904 158.826 235.624ZM139.043 43.9775C139.66 42.8396 140.229 41.6625 140.738 40.4783C142.124 37.2492 145.3 35.1562 148.814 35.1562H151.439C154.951 35.1562 158.127 37.248 159.514 40.476C160.023 41.6619 160.595 42.8402 161.21 43.9775C163.521 48.2461 161.935 53.5799 157.667 55.8914C156.336 56.6115 154.903 56.9537 153.489 56.9537C152.332 56.9537 151.188 56.7246 150.127 56.2869C147.767 57.259 145.006 57.2016 142.587 55.892C138.318 53.5799 136.732 48.2455 139.043 43.9775V43.9775ZM82.5887 73.8164C81.1531 76.4602 78.5568 78.0721 75.7754 78.365C75.5293 80.7832 74.2877 83.0889 72.1578 84.6182C70.6063 85.7326 68.8133 86.2687 67.0385 86.2687C64.3039 86.2687 61.6092 84.9967 59.8924 82.6061C59.1043 81.5092 57.0881 78.8637 56.9199 78.6129C56.2326 77.5869 53.0897 72.1945 58.7018 66.8145C59.068 66.4635 63.9951 61.7004 64.0754 61.6031C66.9436 58.135 71.9668 57.3926 75.7139 59.8828C76.7984 60.6029 77.9234 61.2814 79.0596 61.8979C83.3252 64.2152 84.9049 69.5508 82.5887 73.8164V73.8164ZM90.8152 103.247C91.9262 106.155 92.951 109.141 93.8598 112.121C95.276 116.764 92.6598 121.676 88.0168 123.092C87.1625 123.352 86.2982 123.476 85.4498 123.476C81.684 123.476 78.2012 121.038 77.0457 117.249C76.2541 114.654 75.3623 112.054 74.3949 109.522C72.6623 104.988 74.9334 99.907 79.4674 98.1744C84.0008 96.4424 89.0826 98.7129 90.8152 103.247V103.247ZM58.4486 224.301C59.3199 223.137 60.1807 221.945 61.0051 220.757C63.7736 216.771 69.2492 215.78 73.2371 218.549C75.0852 219.832 76.2893 221.697 76.7732 223.726C78.6219 224.104 80.3633 225.077 81.6851 226.622C84.8404 230.311 84.408 235.859 80.7201 239.014C79.7135 239.876 78.7244 240.791 77.7793 241.736C76.131 243.384 73.8957 244.309 71.5654 244.309C71.5625 244.309 71.5602 244.309 71.5578 244.309C69.2246 244.307 66.9881 243.377 65.341 241.725C63.2533 239.631 60.6998 237.102 59.9381 236.391C58.5107 235.23 57.4666 233.637 56.9861 231.82C56.2988 229.221 56.8373 226.451 58.4486 224.301V224.301ZM83.3264 205.412C82.3291 205.412 81.3148 205.24 80.3228 204.88C75.7613 203.221 73.4082 198.178 75.067 193.617C75.9928 191.071 76.8424 188.457 77.593 185.847C78.933 181.182 83.801 178.485 88.468 179.828C93.1332 181.169 95.8285 186.038 94.4867 190.703C93.6254 193.7 92.6498 196.702 91.5869 199.625C90.2885 203.194 86.917 205.412 83.3264 205.412V205.412ZM91.0121 164.616C90.9359 164.616 90.8598 164.615 90.783 164.613C85.9303 164.488 82.0976 160.454 82.2219 155.602C82.2488 154.559 82.2617 153.507 82.2611 152.474C82.2611 150.789 82.226 149.087 82.1574 147.41C81.9582 142.56 85.7293 138.467 90.5791 138.268C95.4435 138.064 99.5217 141.84 99.7209 146.689C99.7994 148.605 99.8393 150.55 99.8393 152.47C99.8398 153.65 99.8246 154.857 99.7941 156.052C99.6723 160.828 95.7623 164.616 91.0121 164.616V164.616ZM104.363 210.022C107.763 209.578 111.254 209.391 114.689 209.46C119.542 209.559 123.396 213.574 123.297 218.427C123.199 223.219 119.283 227.037 114.513 227.037C114.452 227.037 105.87 227.527 105.491 227.527C101.144 227.527 97.366 224.303 96.7877 219.876C96.1584 215.063 99.5498 210.65 104.363 210.022V210.022ZM123.142 80.267C119.619 81.6855 111.049 83.7082 110.476 83.7082C106.375 83.7082 102.707 80.8242 101.868 76.6494C100.912 71.8904 103.994 67.2574 108.753 66.3006C111.422 65.7639 114.054 64.9775 116.576 63.9615C121.079 62.148 126.199 64.3283 128.012 68.8313C129.825 73.3342 127.645 78.4541 123.142 80.267V80.267ZM172.187 68.7996C174.005 64.2984 179.128 62.1234 183.629 63.9428C186.145 64.9594 188.772 65.7486 191.435 66.2877C196.193 67.251 199.269 71.8887 198.305 76.6459C197.462 80.8148 193.796 83.6924 189.7 83.6924C189.123 83.6924 188.536 83.635 187.947 83.516C184.227 82.7631 180.56 81.6609 177.044 80.2406C172.544 78.423 170.37 73.3008 172.187 68.7996V68.7996ZM185.559 209.46C189.004 209.386 192.49 209.576 195.891 210.021C200.705 210.65 204.096 215.062 203.467 219.875C202.889 224.302 199.11 227.526 194.763 227.526C194.384 227.526 194 227.501 193.613 227.451C191.087 227.121 188.491 226.98 185.93 227.034C181.05 227.149 177.06 223.285 176.958 218.433C176.855 213.58 180.706 209.563 185.559 209.46V209.46ZM200.459 156.063C200.429 154.873 200.414 153.664 200.414 152.47C200.414 150.565 200.453 148.635 200.53 146.732C200.727 141.882 204.819 138.11 209.669 138.308C214.519 138.505 218.291 142.597 218.094 147.446C218.026 149.112 217.992 150.802 217.992 152.47C217.992 153.516 218.005 154.573 218.032 155.614C218.156 160.466 214.322 164.501 209.47 164.624C209.394 164.626 209.317 164.627 209.241 164.627C204.491 164.627 200.581 160.839 200.459 156.063V156.063ZM242.814 79.3107C241.921 80.4697 241.044 81.6498 240.209 82.8182C238.494 85.2188 235.793 86.4979 233.051 86.4979C231.282 86.4979 229.497 85.9658 227.949 84.859C225.76 83.2951 224.503 80.9115 224.299 78.4248C221.53 78.116 218.954 76.4994 217.531 73.8621C215.226 69.59 216.82 64.2586 221.092 61.9535C222.23 61.3395 223.358 60.6639 224.444 59.9467C228.021 57.5836 232.781 58.1473 235.71 61.2803C237.91 63.634 239.551 65.2729 241.991 67.6529C245.182 70.7672 245.537 75.7787 242.814 79.3107V79.3107ZM220.713 98.3314C225.249 100.058 227.527 105.136 225.801 109.672C224.838 112.2 223.953 114.792 223.169 117.377C222.017 121.171 218.531 123.615 214.762 123.615C213.916 123.615 213.056 123.492 212.205 123.233C207.56 121.823 204.938 116.914 206.348 112.27C207.25 109.301 208.267 106.323 209.373 103.419C211.099 98.8834 216.175 96.6053 220.713 98.3314V98.3314ZM211.767 179.738C216.434 178.401 221.3 181.098 222.637 185.765C223.383 188.367 224.229 190.974 225.148 193.512C226.803 198.076 224.445 203.116 219.882 204.771C218.893 205.13 217.881 205.3 216.887 205.3C213.293 205.3 209.919 203.078 208.623 199.504C207.566 196.589 206.596 193.596 205.74 190.608C204.402 185.942 207.1 181.075 211.767 179.738V179.738ZM218.569 226.622C219.849 225.126 221.523 224.166 223.306 223.763C223.756 221.646 224.983 219.688 226.904 218.36C230.896 215.599 236.371 216.597 239.132 220.589C239.955 221.779 240.813 222.972 241.683 224.137C244.216 227.531 243.969 232.249 241.095 235.359C239.111 237.506 235.088 241.549 234.918 241.72C233.27 243.374 231.032 244.305 228.698 244.308C228.695 244.308 228.692 244.308 228.689 244.308C226.357 244.308 224.121 243.381 222.473 241.733C221.531 240.79 220.542 239.875 219.535 239.013C215.846 235.859 215.414 230.31 218.569 226.622V226.622Z" fill="white"/>
</svg>
