<svg width="300" height="300" viewBox="0 0 300 300" fill="none" xmlns="http://www.w3.org/2000/svg">
<path d="M136.941 284.204C131.772 284.608 127.318 284.527 126.303 284.054C125.472 283.662 127.26 281.792 129.487 279.958C132.072 277.823 129.718 275.642 128.472 274.535C124.295 270.819 120.326 266.781 116.587 262.477C115.664 261.415 113.495 259.258 109.353 259.327C102.776 259.442 94.4565 259.731 93.4065 259.235C92.6449 258.877 97.0295 255.219 101.31 251.781C105.026 248.792 103.526 244.95 102.453 243.185C99.0026 237.519 95.8988 231.554 93.118 225.323C92.5411 224.031 90.7872 221.573 86.8065 221.504C80.5642 221.412 73.468 221.838 72.4988 221.388C71.7372 221.019 77.2411 215.827 82.7911 211.223C84.0719 210.162 86.1026 207.692 84.8795 202.685C83.1372 195.473 81.1988 188.192 80.0103 180.623C79.7219 178.777 78.1642 175.062 74.0219 175.165C68.3565 175.338 62.6334 175.408 61.768 175.004C61.018 174.646 66.6834 169.569 72.9142 164.931C74.5988 163.696 77.2526 162.785 77.7488 156.3C77.8872 154.465 77.6334 152.619 77.6334 150.762C77.6334 144.519 77.8526 138.369 78.568 132.335C79.2372 126.738 75.868 125.608 74.0103 125.7C68.2988 125.988 62.5065 126.277 61.6642 125.873C60.8334 125.481 69.0834 119.538 77.0565 114.635C78.6603 113.665 81.4065 111.785 82.9065 106.731C84.9834 99.75 86.7488 92.7692 89.3449 86.1808C91.6872 80.2269 86.8988 79.2346 84.4757 79.2808C78.3257 79.3962 73.318 79.7192 72.3372 79.2692C71.4142 78.8308 81.9603 72.75 91.7911 68.6654C94.0757 67.7077 98.2411 65.8615 102.153 59.6077C105.106 54.9 108.36 50.4577 111.418 45.9692C114.43 41.5615 111.106 40.9731 109.11 40.9731C101.541 40.9731 94.9526 41.5615 93.8103 41.0077C92.7488 40.5231 109.491 34.0731 119.553 31.5346C121.745 30.9808 124.803 30.1731 128.83 26.8615C132.256 24.0346 135.499 21 139.087 18.4846C142.272 16.2462 139.687 15.7846 138.233 15.7615C129.88 15.6462 122.276 16.3731 121.03 15.7846C119.83 15.2192 142.364 11.1462 151.226 10.5346C159.014 6.10385 172.295 2.48077 180.891 0C178.664 0 176.783 0.0115385 176.056 0.0692308H126.049C123.233 0.426923 111.199 -0.0923077 109.018 0.0692308C103.353 0.680769 99.4411 1.25769 94.0065 3.43846C90.4296 4.88077 89.2642 9.48462 91.6988 10.4654C94.3988 11.55 104.68 15.1154 103.422 15.75C102.383 16.2692 88.7911 15.75 80.2642 15.1615C76.8719 14.9192 72.1642 14.6192 70.1796 16.0615C65.1257 19.7308 66.6949 18.9346 61.9872 23.6769C60.118 25.5577 59.6449 29.6192 62.3449 30.8885C64.9411 32.0885 77.5295 40.5 75.8449 41.3423C74.4026 42.0692 56.8526 43.3038 52.5603 42.9C48.3142 42.5077 46.0757 42.75 44.4142 45.1154C40.2949 50.9885 39.8565 53.0654 36.4526 59.9538C35.1026 62.6769 35.218 67.5692 37.2719 68.6192C39.3257 69.6577 49.018 74.2731 54.9257 79.2C48.2565 78.6577 35.3565 81.3692 32.4719 81.3692C29.5872 81.3692 27.2911 81.5192 26.2757 84.5654C23.6795 92.2962 23.2065 95.2269 21.5449 103.385C20.8988 106.65 22.0757 109.962 24.6026 111.404C27.1295 112.846 46.2488 125.804 44.2988 125.7C41.0565 125.515 24.3142 129.496 21.7872 129.542C19.2603 129.588 17.6103 131.562 17.3334 134.885C16.8142 141.104 17.0565 141.104 17.0565 147.462C17.068 149.746 17.1026 152.031 17.1719 154.281C17.2757 157.592 20.2411 161.192 23.0103 162.496C26.7949 164.296 46.2142 173.838 44.4834 174.715C43.0526 175.431 25.4911 177.6 23.6911 177.658C19.6065 177.785 19.1103 181.869 19.5834 185.204C20.7834 193.569 20.8757 195.127 23.0449 203.123C23.6795 205.523 25.7911 207.692 27.9603 208.419C30.1295 209.146 57.5796 220.35 55.8372 221.227C54.3949 221.954 37.9411 225.092 35.3449 225.208C31.8949 225.392 32.2526 230.296 33.8334 233.862C37.0065 241.038 35.518 238.846 39.3372 245.238C40.1219 246.588 43.6526 248.723 44.7488 248.954C46.918 249.438 78.1411 258.208 76.3988 259.073C74.9565 259.8 58.2719 260.608 55.1795 260.781C52.0872 260.954 52.4911 265.581 54.2565 267.692C58.7449 273.035 57.6834 272.135 62.5411 276.358C65.2988 278.758 71.7257 278.562 72.1526 278.885C78.5796 279.9 105.614 283.488 103.976 284.319C102.533 285.046 92.5642 286.142 83.0565 287.273C80.0449 287.135 82.468 291.323 84.6257 292.385C90.0026 295.096 95.5642 297.115 101.183 298.385C101.403 298.431 101.599 298.454 101.795 298.454C103.803 298.454 116.38 299.654 118.595 299.654C121.445 299.654 160.041 299.862 178.93 299.954C167.922 296.769 153.233 291.923 143.056 285.658C142.203 285.138 140.01 283.95 136.941 284.204Z" fill="white"/>
<path d="M281.622 136.131C281.414 132.727 279.66 130.292 277.18 130.512C277.122 130.523 277.064 130.65 276.995 130.662C276.637 126.508 276.199 122.388 275.576 118.338C275.645 118.327 275.691 118.338 275.737 118.315C277.907 117.427 279.21 114.023 278.622 110.723C277.145 102.462 275.16 94.3038 272.76 86.5038C271.837 83.3769 266.899 82.0846 266.899 82.0846C266.899 82.0846 264.568 76.3615 263.103 72.8538C263.149 72.7962 263.218 72.8192 263.264 72.7731C265.11 70.8231 265.584 66.9692 264.291 64.1654C261.06 57.1154 257.38 50.4462 253.399 44.3308C251.818 41.9077 245.864 42.1615 245.818 42.2538C245.276 41.3538 243.395 38.9654 241.214 36.3692C241.272 36.2654 241.341 36.3231 241.387 36.2192C242.714 33.4385 242.276 29.5615 240.453 27.5769C235.803 22.5692 230.876 18.1615 225.787 14.4577C223.734 12.9923 214.826 14.2962 214.826 14.2962L212.553 13.1423C212.587 13.05 212.645 13.0269 212.657 12.9577C213.28 9.66923 212.01 6.24231 209.853 5.30769C204.395 2.98846 198.776 1.36154 193.099 0.496154C191.449 0.173077 185.553 0.0230769 181.076 0C172.364 3 163.976 7.11923 156.037 12.2885C163.699 13.2 146.38 25.3846 147.707 18.2423C142.699 22.1423 137.934 26.4923 133.434 31.2692C140.772 31.9731 127.122 49.2808 124.884 41.2615C119.126 48.7154 113.957 56.9538 109.468 65.9192C116.137 63.9231 108.095 85.8692 103.387 79.6846C99.6605 89.2269 96.6951 99.4615 94.572 110.342C100.78 108.058 97.849 128.054 92.2528 125.181C91.2836 133.385 90.7759 141.923 90.7759 150.738C90.7759 152.573 90.799 154.396 90.8451 156.208C96.8797 153.669 99.8105 171.958 91.7797 172.119C92.8528 183.138 94.7451 193.569 97.3528 203.365C101.022 199.754 110.541 215.619 102.003 218.135C105.199 226.881 109.018 235.05 113.38 242.608C115.641 238.281 127.11 252.427 120.568 253.846C125.645 261.046 131.276 267.554 137.322 273.369C138.326 269.25 150.28 278.273 145.595 280.673C155.922 289.004 167.241 295.454 179.172 299.954C185.207 299.977 189.199 300 189.199 300C195.28 299.781 198.222 299.1 200.749 298.373C202.964 297.727 207.372 290.862 207.372 290.862C207.372 290.862 215.357 290.481 217.007 290.481C217.503 290.481 217.999 290.342 218.484 290.065C223.745 286.985 228.88 283.188 233.772 278.758C235.71 277.015 236.334 273.208 235.168 270.277C235.134 270.208 235.076 270.208 235.064 270.138C237.36 267.842 237.822 267.277 240.014 264.692C240.037 264.762 243.753 265.154 244.907 265.154C245.841 265.154 246.81 264.658 247.56 263.654C251.864 258.058 255.88 251.862 259.48 245.204C260.899 242.562 260.668 238.685 258.926 236.504C258.857 236.423 258.776 236.469 258.718 236.4C260.368 233.054 261.568 230.815 263.057 227.238C263.103 227.296 264.891 227.077 265.584 227.077C267.003 227.077 268.353 225.946 269.126 223.95C271.941 216.496 274.318 208.615 276.245 200.527C277.007 197.308 275.887 193.765 273.764 192.6C273.73 192.588 273.695 192.623 273.661 192.612C274.48 188.642 275.137 184.592 275.726 180.496C275.784 180.508 275.795 180.6 275.841 180.612C276.084 180.669 276.326 180.692 276.545 180.692C278.518 180.692 280.237 178.558 280.584 175.558C281.541 167.123 282.037 158.469 282.037 149.838C282.026 145.223 281.887 140.642 281.622 136.131ZM189.753 245.342C158.31 245.342 132.822 202.662 132.822 150.035C132.822 97.3846 158.31 54.7154 189.753 54.7154C221.207 54.7154 246.672 97.3846 246.672 150.035C246.672 202.65 221.207 245.342 189.753 245.342Z" fill="white"/>
</svg>
