<svg width="300" height="300" viewBox="0 0 300 300" fill="none" xmlns="http://www.w3.org/2000/svg">
<path d="M96.6755 238.235V255.882C96.6755 260.755 100.626 264.706 105.499 264.706C110.372 264.706 114.323 260.755 114.323 255.882V238.235H140.793V255.882C140.793 260.755 144.744 264.706 149.617 264.706C154.49 264.706 158.44 260.755 158.44 255.882V238.235H184.911V255.882C184.911 260.755 188.861 264.706 193.734 264.706C198.607 264.706 202.558 260.755 202.558 255.882V238.235H207.528C210.146 238.235 212.63 237.072 214.306 235.061L225.782 221.289C230.811 215.254 238.261 211.765 246.117 211.765H255.499C266.396 211.765 275.229 220.598 275.229 231.495C275.229 234.558 274.516 237.578 273.146 240.318L253.06 280.49C247.082 292.447 234.861 300 221.492 300H77.7411C64.3726 300 52.1517 292.447 46.1731 280.49L26.0873 240.318C21.2142 230.572 25.1646 218.721 34.9108 213.848C37.6504 212.478 40.6713 211.765 43.7343 211.765H54.0717C61.0921 211.765 67.8252 214.554 72.7894 219.518L88.9223 235.651C90.5771 237.306 92.8215 238.235 95.1617 238.235H96.6755ZM227.367 198.301C221.593 201.011 216.407 204.974 212.225 209.992L203.395 220.588H98.8165L85.2675 207.04C81.3783 203.15 76.8379 200.062 71.9024 197.882C74.1146 170.498 78.4878 140.992 85.0163 109.356C87.5542 97.0579 98.3833 88.2353 110.941 88.2353H114.323V70.5882H111.503C101.757 70.5882 93.856 62.6874 93.856 52.9412C93.856 51.9692 93.9363 50.9988 94.0961 50.04L99.9784 14.7459C101.397 6.23671 108.759 0 117.386 0H181.848C190.474 0 197.837 6.23671 199.255 14.7459L205.137 50.04C206.739 59.6536 200.245 68.7458 190.631 70.348C189.673 70.5078 188.702 70.5882 187.73 70.5882H184.911V88.2353H188.295C200.851 88.2353 211.679 97.0562 214.219 109.353C220.782 141.135 225.166 170.782 227.367 198.301ZM131.97 88.2353H167.264V70.5882H131.97V88.2353ZM184.911 163.235H114.323C109.449 163.235 105.499 167.186 105.499 172.059C105.499 176.932 109.449 180.882 114.323 180.882H184.911C189.784 180.882 193.734 176.932 193.734 172.059C193.734 167.186 189.784 163.235 184.911 163.235ZM180.499 127.941H118.734C113.861 127.941 109.911 131.892 109.911 136.765C109.911 141.638 113.861 145.588 118.734 145.588H180.499C185.372 145.588 189.323 141.638 189.323 136.765C189.323 131.892 185.372 127.941 180.499 127.941Z" fill="white"/>
</svg>
