<svg width="300" height="300" viewBox="0 0 300 300" fill="none" xmlns="http://www.w3.org/2000/svg">
<path d="M44.9771 104.518L38.4568 111.039C19.3148 130.181 19.3148 161.327 38.4568 180.469L56.7703 198.783L9.20566 246.348C3.26953 252.285 0 260.177 0 268.572C0 276.967 3.26953 284.859 9.20507 290.795C15.1412 296.73 23.0332 300 31.4285 300C39.8226 300 47.7152 296.73 53.6507 290.794L101.216 243.23L119.53 261.543C138.672 280.684 169.819 280.686 188.961 261.543L195.481 255.023L44.9771 104.518Z" fill="white"/>
<path d="M297.348 140.353L216.323 59.3285C214.123 57.1283 210.947 56.213 207.915 56.9015L180.657 63.0966L186.877 35.8769C187.571 32.8406 186.656 29.6607 184.452 27.4582L159.646 2.65137C157.949 0.953906 155.647 0 153.245 0C150.843 0 148.54 0.953906 146.843 2.65195L57.7798 91.715L208.285 242.22L297.348 153.156C300.884 149.621 300.884 143.889 297.348 140.353Z" fill="white"/>
</svg>
