<svg width="300" height="300" viewBox="0 0 300 300" fill="none" xmlns="http://www.w3.org/2000/svg">
<path d="M150 0C120.333 0 91.3319 8.79735 66.6645 25.2796C41.9971 41.7618 22.7713 65.1886 11.4181 92.5975C0.0649925 120.006 -2.90551 150.166 2.88227 179.264C8.67006 208.361 22.9562 235.088 43.934 256.066C64.9119 277.044 91.6394 291.33 120.737 297.118C149.834 302.906 179.994 299.935 207.403 288.582C234.811 277.229 258.238 258.003 274.72 233.335C291.203 208.668 300 179.667 300 150C299.955 110.231 284.138 72.104 256.017 43.9832C227.896 15.8623 189.769 0.044523 150 0V0ZM150 42.8571C172.797 42.8198 195.007 50.0801 213.38 63.5755C231.753 77.0709 245.324 96.0928 252.107 117.857H216.964L208.929 107.143C206.427 103.824 203.19 101.129 199.472 99.2701C195.754 97.4112 191.657 96.4386 187.5 96.4286H112.5C108.343 96.4379 104.245 97.4102 100.528 99.2692C96.8096 101.128 93.573 103.823 91.0715 107.143L83.0358 117.857H47.8929C54.6768 96.0933 68.2481 77.072 86.621 63.5768C104.994 50.0815 127.204 42.8208 150 42.8571V42.8571ZM123.214 253.735C103.801 248.711 86.1896 238.334 72.3868 223.788C58.584 209.241 49.1452 191.11 45.1458 171.46C66.0452 172.08 85.8825 180.811 100.455 195.805C115.028 210.799 123.19 230.877 123.214 251.786V253.735ZM150 192.857C143.643 192.857 137.428 190.972 132.142 187.44C126.857 183.908 122.737 178.888 120.304 173.015C117.871 167.141 117.235 160.679 118.475 154.443C119.715 148.208 122.776 142.481 127.272 137.986C131.767 133.491 137.494 130.429 143.729 129.189C149.964 127.949 156.427 128.585 162.301 131.018C168.174 133.451 173.194 137.571 176.726 142.857C180.258 148.143 182.143 154.357 182.143 160.714C182.134 169.236 178.744 177.406 172.718 183.432C166.692 189.458 158.522 192.848 150 192.857V192.857ZM176.786 253.735V251.786C176.811 230.877 184.974 210.799 199.547 195.806C214.12 180.812 233.957 172.08 254.856 171.46C250.858 191.111 241.419 209.243 227.616 223.789C213.812 238.336 196.2 248.712 176.786 253.735V253.735Z" fill="white"/>
<path d="M150 182.143C161.835 182.143 171.429 172.549 171.429 160.714C171.429 148.88 161.835 139.286 150 139.286C138.165 139.286 128.572 148.88 128.572 160.714C128.572 172.549 138.165 182.143 150 182.143Z" fill="white"/>
</svg>
