<svg width="705" height="263" viewBox="0 0 705 263" fill="none" xmlns="http://www.w3.org/2000/svg">
<path d="M68.0097 201.849L67.9673 184.318L59.2326 198.76H56.1373L47.445 184.694V201.849H41V172.631H46.6818L57.791 190.788L68.7305 172.631H74.3699L74.4547 201.849H68.0097Z" fill="white"/>
<path d="M103.376 190.704C103.376 190.788 103.333 191.372 103.249 192.457H85.9912C86.3022 193.849 87.0371 194.948 88.1961 195.755C89.3551 196.562 90.7967 196.965 92.521 196.965C93.7083 196.965 94.7542 196.798 95.6587 196.464C96.5916 196.103 97.4537 195.546 98.2452 194.795L101.765 198.551C99.6162 200.972 96.4785 202.183 92.3514 202.183C89.7791 202.183 87.5035 201.696 85.5248 200.722C83.5461 199.72 82.0196 198.343 80.9455 196.59C79.8713 194.837 79.3342 192.847 79.3342 190.621C79.3342 188.423 79.8571 186.447 80.9031 184.694C81.9772 182.913 83.433 181.536 85.2704 180.562C87.1361 179.56 89.2137 179.059 91.5034 179.059C93.7365 179.059 95.7577 179.532 97.5668 180.478C99.3759 181.424 100.789 182.788 101.807 184.569C102.853 186.322 103.376 188.367 103.376 190.704ZM91.5458 183.984C90.0476 183.984 88.7897 184.402 87.7721 185.237C86.7544 186.071 86.1326 187.212 85.9064 188.659H97.1428C96.9167 187.24 96.2948 186.113 95.2771 185.278C94.2595 184.416 93.0157 183.984 91.5458 183.984Z" fill="white"/>
<path d="M122.493 200.763C121.843 201.237 121.037 201.598 120.076 201.849C119.143 202.071 118.154 202.183 117.108 202.183C114.394 202.183 112.288 201.501 110.79 200.137C109.32 198.774 108.585 196.77 108.585 194.127V184.903H105.066V179.894H108.585V174.426H115.2V179.894H120.882V184.903H115.2V194.043C115.2 194.99 115.44 195.727 115.921 196.256C116.429 196.757 117.136 197.007 118.041 197.007C119.087 197.007 119.977 196.729 120.712 196.172L122.493 200.763Z" fill="white"/>
<path d="M135.407 179.059C138.941 179.059 141.654 179.894 143.548 181.563C145.442 183.205 146.389 185.696 146.389 189.035V201.849H140.198V199.052C138.955 201.139 136.637 202.183 133.245 202.183C131.492 202.183 129.966 201.89 128.665 201.306C127.393 200.722 126.418 199.915 125.74 198.885C125.061 197.856 124.722 196.687 124.722 195.379C124.722 193.292 125.513 191.65 127.096 190.454C128.708 189.257 131.181 188.659 134.517 188.659H139.774C139.774 187.24 139.336 186.155 138.46 185.403C137.584 184.624 136.269 184.235 134.517 184.235C133.301 184.235 132.1 184.43 130.913 184.819C129.754 185.181 128.764 185.682 127.944 186.322L125.57 181.772C126.814 180.91 128.298 180.242 130.022 179.769C131.775 179.296 133.57 179.059 135.407 179.059ZM134.898 197.8C136.029 197.8 137.032 197.55 137.909 197.049C138.785 196.52 139.407 195.755 139.774 194.753V192.457H135.237C132.524 192.457 131.167 193.334 131.167 195.087C131.167 195.922 131.492 196.59 132.142 197.09C132.821 197.563 133.739 197.8 134.898 197.8Z" fill="white"/>
<path d="M175.824 196.423V201.849H152.842V172.631H175.272V178.057H159.669V184.402H173.449V189.661H159.669V196.423H175.824Z" fill="white"/>
<path d="M203.893 170.878V201.849H197.575V199.261C195.936 201.209 193.561 202.183 190.452 202.183C188.303 202.183 186.353 201.71 184.6 200.763C182.876 199.817 181.519 198.468 180.53 196.715C179.54 194.962 179.046 192.93 179.046 190.621C179.046 188.311 179.54 186.28 180.53 184.527C181.519 182.774 182.876 181.424 184.6 180.478C186.353 179.532 188.303 179.059 190.452 179.059C193.363 179.059 195.639 179.963 197.278 181.772V170.878H203.893ZM191.597 196.84C193.264 196.84 194.65 196.283 195.752 195.17C196.854 194.03 197.406 192.513 197.406 190.621C197.406 188.729 196.854 187.226 195.752 186.113C194.65 184.972 193.264 184.402 191.597 184.402C189.901 184.402 188.501 184.972 187.399 186.113C186.296 187.226 185.745 188.729 185.745 190.621C185.745 192.513 186.296 194.03 187.399 195.17C188.501 196.283 189.901 196.84 191.597 196.84Z" fill="white"/>
<path d="M210.015 179.393H216.63V201.849H210.015V179.393ZM213.322 176.263C212.107 176.263 211.117 175.915 210.354 175.219C209.591 174.523 209.209 173.661 209.209 172.631C209.209 171.602 209.591 170.739 210.354 170.043C211.117 169.348 212.107 169 213.322 169C214.538 169 215.527 169.334 216.29 170.002C217.054 170.67 217.435 171.504 217.435 172.506C217.435 173.591 217.054 174.496 216.29 175.219C215.527 175.915 214.538 176.263 213.322 176.263Z" fill="white"/>
<path d="M237.482 200.763C236.832 201.237 236.026 201.598 235.065 201.849C234.132 202.071 233.143 202.183 232.097 202.183C229.383 202.183 227.277 201.501 225.779 200.137C224.309 198.774 223.574 196.77 223.574 194.127V184.903H220.055V179.894H223.574V174.426H230.189V179.894H235.871V184.903H230.189V194.043C230.189 194.99 230.429 195.727 230.91 196.256C231.418 196.757 232.125 197.007 233.03 197.007C234.076 197.007 234.966 196.729 235.701 196.172L237.482 200.763Z" fill="white"/>
<path d="M251.346 202.183C248.943 202.183 246.781 201.696 244.858 200.722C242.964 199.72 241.48 198.343 240.406 196.59C239.332 194.837 238.795 192.847 238.795 190.621C238.795 188.395 239.332 186.405 240.406 184.652C241.48 182.899 242.964 181.536 244.858 180.562C246.781 179.56 248.943 179.059 251.346 179.059C253.749 179.059 255.897 179.56 257.791 180.562C259.685 181.536 261.169 182.899 262.243 184.652C263.317 186.405 263.854 188.395 263.854 190.621C263.854 192.847 263.317 194.837 262.243 196.59C261.169 198.343 259.685 199.72 257.791 200.722C255.897 201.696 253.749 202.183 251.346 202.183ZM251.346 196.84C253.042 196.84 254.427 196.283 255.501 195.17C256.604 194.03 257.155 192.513 257.155 190.621C257.155 188.729 256.604 187.226 255.501 186.113C254.427 184.972 253.042 184.402 251.346 184.402C249.65 184.402 248.251 184.972 247.148 186.113C246.046 187.226 245.494 188.729 245.494 190.621C245.494 192.513 246.046 194.03 247.148 195.17C248.251 196.283 249.65 196.84 251.346 196.84Z" fill="white"/>
<path d="M274.593 182.357C275.385 181.271 276.445 180.45 277.774 179.894C279.13 179.337 280.685 179.059 282.438 179.059V185.07C281.703 185.014 281.208 184.986 280.954 184.986C279.06 184.986 277.576 185.515 276.501 186.572C275.427 187.602 274.89 189.16 274.89 191.247V201.849H268.276V179.393H274.593V182.357Z" fill="white"/>
<path d="M198.804 71.5V114.5L161.358 134.045L123.912 114.5V71.5L126.297 70.2588L161.358 88.1136L195.996 70.0341L198.804 71.5Z" fill="white" fill-opacity="0.4"/>
<path d="M123.912 71.5L161.358 91.0454L198.804 71.5L161.358 51.9545L123.912 71.5Z" fill="white"/>
<path d="M198.804 71.5V114.5L161.358 134.045V91.0455L198.804 71.5Z" fill="white" fill-opacity="0.7"/>
<path d="M489.506 100.559C489.506 100.559 487.933 92.6991 496.248 83.1802C504.563 73.6617 510.801 70.2003 517.539 68.3974C517.539 68.3974 517.533 68.4008 517.527 68.4043C517.536 68.4021 517.544 68.3996 517.553 68.3974C517.553 68.3974 512.26 71.4986 512.26 76.1852C512.26 77.5456 512.476 78.4803 512.774 79.1048C513.171 79.9343 513.798 80.2163 514.362 80.2191C514.837 80.2218 515.115 80.0254 515.716 79.7907V105.173C515.716 105.173 515.781 105.582 516.146 106.067C516.672 106.765 517.498 107.616 519.051 107.624C521.7 107.607 525.031 104.597 525.031 104.597V84.0456C525.031 81.9548 523.544 79.4308 521.968 78.5648C521.968 78.5648 522.182 78.5512 522.53 78.5514C523.571 78.5511 525.803 78.6708 527.047 79.6268C527.393 79.224 532.969 72.8755 542.893 70.922C542.893 70.922 542.891 70.9239 542.888 70.9276C542.897 70.9257 542.906 70.9238 542.915 70.922C542.915 70.922 537.427 77.4241 535.706 80.6485C535.4 80.6668 535.356 86.7659 535.407 92.8603C535.456 98.7433 535.595 104.623 535.676 105.03C535.676 105.03 536.261 105.905 537.753 105.913C539.435 105.922 542.27 104.825 546.714 100.126L546.714 100.126L546.714 100.126C546.714 100.126 546.597 100.393 546.361 100.867C545.087 103.428 540.355 112.011 531.948 117L531.948 116.999C531.947 116.999 531.947 116.999 531.947 117L526.495 112.36L526.355 112.243L520.408 118.587C520.408 118.587 520.405 118.586 520.399 118.586L520.399 118.587C520.399 118.587 506.841 117.433 501.179 109.213C501.179 109.213 501.19 109.217 501.206 109.223C501.203 109.219 501.201 109.216 501.199 109.213C501.199 109.213 502.056 109.548 503.024 109.567C504.158 109.588 505.349 109.171 505.349 107.265V87.9396C505.349 86.9527 504.673 85.8457 503.191 85.8499C501.857 85.8534 499.943 86.7559 497.33 89.4539C491.81 95.1502 489.518 100.559 489.518 100.559C489.518 100.559 489.517 100.552 489.514 100.538C489.509 100.551 489.506 100.559 489.506 100.559ZM519.622 133.323C530.198 133.323 540.14 129.18 547.618 121.657C555.096 114.134 559.214 104.131 559.214 93.492C559.214 82.8528 555.096 72.8504 547.618 65.3273C540.14 57.8043 530.198 53.6611 519.622 53.6611C509.047 53.6611 499.104 57.8043 491.626 65.3273C484.149 72.8504 480.03 82.8528 480.03 93.492C480.03 104.131 484.149 114.134 491.626 121.657C499.104 129.18 509.047 133.323 519.622 133.323Z" fill="white"/>
<path d="M519.623 51.8282C542.495 51.8282 561.037 70.4821 561.037 93.4928C561.037 116.503 542.495 135.157 519.623 135.157C496.75 135.157 478.208 116.503 478.208 93.4928C478.208 70.4821 496.75 51.8282 519.623 51.8282ZM519.623 136.342C530.999 136.342 541.695 131.885 549.74 123.792C557.784 115.699 562.215 104.938 562.215 93.4928C562.215 82.0474 557.784 71.287 549.74 63.1939C541.695 55.1007 530.999 50.6437 519.623 50.6437C508.246 50.6437 497.55 55.1007 489.506 63.1939C481.461 71.287 477.031 82.0474 477.031 93.4928C477.031 104.938 481.461 115.699 489.506 123.792C497.55 131.885 508.246 136.342 519.623 136.342Z" fill="white"/>
<path d="M599.127 186.97V168.678H592.247V192.376H615.325V186.97H599.127Z" fill="white"/>
<path d="M515.239 208.605H517.885H520.378C520.506 209.968 520.106 210.657 518.998 210.764C517.9 210.87 516.795 210.959 515.693 210.962C511.112 210.973 510.621 210.434 510.898 205.831C510.903 205.745 510.906 205.66 510.914 205.574C511.086 203.858 511.714 203.209 513.424 203.129C514.742 203.068 516.064 203.106 517.384 203.095C518.759 203.084 520.071 203.182 520.405 204.801H523.782C524.258 202.083 523.373 200.603 520.778 200.45C517.437 200.253 514.067 200.284 510.724 200.473C508.477 200.599 507.323 201.932 507.192 204.146C507.079 206.065 507.084 208.001 507.19 209.921C507.303 211.968 508.255 212.991 510.245 213.504C510.979 213.693 511.725 213.836 512.466 214H519.119C519.654 213.886 520.187 213.765 520.724 213.658C522.161 213.372 523.573 212.907 523.862 211.269C524.147 209.653 524.134 207.984 524.258 206.246H515.239V208.605Z" fill="white"/>
<path d="M488.78 192.97V169.444H482.019V187.41C477.189 181.119 472.615 175.162 468.141 169.334H457.549V193H464.28V175.404L464.594 175.325C469.2 181.246 473.807 187.168 478.32 192.97H488.78Z" fill="white"/>
<path d="M500.953 180.528V173.752C504.077 173.752 507.125 173.751 510.173 173.753C510.598 173.753 511.024 173.765 511.449 173.768C515.236 173.794 515.633 174.906 515.253 178.654C515.129 179.873 514.21 180.482 513.127 180.501C509.102 180.569 505.075 180.528 500.953 180.528ZM515.396 189.127C515.487 190.173 515.536 191.223 515.605 192.294H522.358C522.358 190.811 522.414 189.446 522.347 188.088C522.198 185.099 521.761 183.78 518.867 183.275C518.716 183.248 518.582 183.117 518.226 182.909C521.135 182.258 522.177 180.281 522.315 177.709C522.383 176.432 522.36 175.13 522.191 173.865C521.781 170.789 520.658 169.573 517.647 169.004C516.148 168.72 514.605 168.569 513.081 168.556C507.242 168.505 501.403 168.533 495.564 168.539C495.109 168.539 494.654 168.596 494.12 168.631V192.284H500.909V185.759C502.455 185.759 503.854 185.73 505.252 185.765C507.72 185.827 510.202 185.787 512.649 186.056C514.653 186.275 515.218 187.097 515.396 189.127" fill="white"/>
<path d="M534.109 182.755H551.709V177.976H534.08V173.706H552.721V168.682H527.187V192.299H553.035V187.101H534.109V182.755Z" fill="white"/>
<path d="M452.456 169.359C452.457 169.123 452.312 168.886 452.239 168.662H445.499C445.499 172.858 445.513 176.926 445.49 180.995C445.484 182.106 445.411 183.22 445.293 184.325C445.123 185.911 444.128 186.909 442.629 186.985C439.533 187.142 436.415 187.257 433.328 187.053C430.842 186.89 430.034 185.767 430.006 183.219C429.957 178.844 429.98 174.467 429.958 170.092C429.956 169.604 429.859 169.116 429.807 168.632H423.072C423.072 174.513 422.871 180.221 423.141 185.906C423.329 189.858 424.958 191.415 428.921 192.082C434.674 193.052 440.486 193.011 446.238 192.151C450.631 191.494 452.122 189.853 452.316 185.44C452.551 180.088 452.435 174.72 452.456 169.359Z" fill="white"/>
<path d="M567.069 183.098C568.708 179.856 570.299 176.711 572.062 173.223C573.824 176.671 575.419 179.791 577.109 183.098H567.069ZM567.785 168.604C563.548 176.464 559.322 184.302 554.998 192.321H562.383C563.124 190.9 563.83 189.547 564.519 188.226H579.7C580.435 189.625 581.147 190.981 581.843 192.306H589.306C584.907 184.196 580.655 176.357 576.449 168.604H567.785Z" fill="white"/>
<path d="M499.999 210.139C499.894 210.164 499.789 210.189 499.684 210.214C497.088 206.848 494.493 203.482 492.003 200.252H486.015V213.62H489.708V203.867C489.834 203.822 489.959 203.778 490.084 203.733C492.694 207.069 495.304 210.406 497.834 213.64H503.813V200.283H499.999V210.139Z" fill="white"/>
<path d="M548.103 210.145C548.001 210.172 547.9 210.199 547.798 210.225C545.257 206.927 542.717 203.628 540.256 200.433H534.293V213.593H538.074V203.502C540.895 207.125 543.464 210.424 545.978 213.652H551.865V200.475H548.103V210.145Z" fill="white"/>
<path d="M472.558 208.269H482.583V205.511H472.559V203.027H483.132V200.24H468.739V213.608H483.401V210.767H472.558V208.269Z" fill="white"/>
<path d="M559.277 208.265H569.117V205.578H559.315V203.097H569.695V200.446H555.408V213.599H569.927V210.78H559.277V208.265Z" fill="white"/>
<path d="M527.22 213.636H530.879V200.459H527.22V213.636Z" fill="white"/>
<rect opacity="0.3" x="352" y="27" width="1" height="210" fill="white"/>
</svg>
