<svg width="100" height="100" viewBox="0 0 100 100" fill="none" xmlns="http://www.w3.org/2000/svg">
<path d="M92.2797 4.35411C92.4479 4.2279 92.6303 4.1157 92.8108 4C94.627 8.98387 96.3975 13.987 98.254 18.9534C97.5195 23.4534 96.7499 27.9552 96.0048 32.457C95.8891 33.2073 95.7016 33.9506 95.6858 34.7131C96.3169 35.3232 97.1356 35.6966 97.842 36.212C96.934 37.1201 95.8208 37.7897 94.9145 38.6995C95.6788 39.25 96.4589 39.7759 97.2127 40.3404C96.2468 41.3151 95.23 42.2389 94.2851 43.2346C94.918 43.6448 95.5543 44.055 96.1731 44.4863C94.776 46.2428 93.3613 47.9853 91.9624 49.7401L91.7993 49.684C89.4993 48.9478 87.145 48.3798 84.824 47.7084C80.4186 46.497 76.0238 45.2454 71.6096 44.0603C70.9032 43.6922 70.3492 43.1102 69.7532 42.5965C65.4775 38.8608 61.1914 35.1356 56.9227 31.3929C56.8877 31.3578 56.8193 31.2895 56.786 31.2544C59.256 29.5242 61.6068 27.6239 64.0295 25.8288C72.5703 19.3566 81.1111 12.8861 89.6519 6.41568C90.5336 5.7355 91.4505 5.10091 92.2797 4.35411Z" fill="#6D401E"/>
<path d="M6.6703 4.37695C6.95078 4.51895 7.29964 4.58206 7.50649 4.838L7.63797 5.00629C7.73965 5.12199 7.85009 5.23419 7.97105 5.33586C19.4446 13.9643 30.9481 22.5594 42.4094 31.2054L42.3936 31.3368C41.9851 31.9802 41.3611 32.429 40.8001 32.9268C37.8883 35.5108 34.9765 38.0913 32.063 40.6752C30.7289 41.8077 29.4965 43.0629 28.0853 44.1042C21.3642 45.9326 14.6694 47.8574 7.95877 49.7244L7.76069 49.7823C6.36001 48.0643 4.95057 46.3516 3.60249 44.5933C4.22657 44.1778 4.86467 43.7834 5.46772 43.3381C4.54036 42.3687 3.50432 41.5009 2.61378 40.5017C3.30798 39.8689 4.13892 39.4113 4.88571 38.8468C3.93557 37.9896 2.87148 37.2674 1.9301 36.4014C2.66637 35.9263 3.40264 35.4495 4.12489 34.9498C3.31674 29.7205 2.33329 24.514 1.44801 19.2988C3.20455 14.3342 4.93129 9.35031 6.6703 4.37695Z" fill="#6D401E"/>
<path d="M62.4308 17.6402C72.4038 13.2682 82.3137 8.7471 92.2796 4.354C91.4505 5.1008 90.5336 5.7354 89.6519 6.41557C81.1111 12.886 72.5703 19.3565 64.0295 25.8287C61.6068 27.6238 59.256 29.5241 56.786 31.2543C56.9367 30.6723 57.1331 30.1043 57.382 29.5574C59.0755 25.5902 60.7198 21.6003 62.4308 17.6402Z" fill="#D27C34"/>
<path d="M7.63795 5.00618L7.50648 4.83789C16.3102 8.59464 25.0719 12.4636 33.8581 16.2624C34.7767 16.6358 35.6549 17.1074 36.6051 17.3949C36.8277 17.472 37.0749 17.5386 37.2397 17.7209C39.0295 21.8002 40.5792 25.9847 42.2866 30.1008C42.4462 30.4479 42.4812 30.8319 42.4094 31.2053C30.948 22.5593 19.4446 13.9642 7.97103 5.33575C7.85007 5.23408 7.73963 5.12188 7.63795 5.00618Z" fill="#D47C35"/>
<path d="M40.8001 32.9267C41.361 32.4288 41.9851 31.98 42.3936 31.3367C42.3287 32.9915 42.5584 34.6376 42.5829 36.2907C42.8248 41.1975 43.1018 46.1042 43.3192 51.011C43.3998 51.5895 43.9573 51.9891 43.9625 52.5904C44.0344 54.2751 44.1799 55.9563 44.2623 57.6392C43.9012 57.8495 43.5856 58.1265 43.2999 58.4298C43.4577 58.4613 43.6172 58.4929 43.7785 58.5262C43.8346 60.2915 43.6032 62.0516 43.6452 63.8169C43.5786 65.8171 43.7136 67.8331 43.4068 69.8175C42.7863 67.493 42.3778 65.1194 41.8046 62.7843C41.5995 62.8001 41.3944 62.8159 41.191 62.8299L41.212 62.716C41.8536 60.3511 42.185 57.9144 42.6758 55.5145C42.8985 54.212 43.2683 52.9323 43.3174 51.607C36.2755 51.5351 29.2336 51.4562 22.1934 51.3616C22.3179 50.9847 22.523 50.6376 22.7999 50.3501C23.7308 49.3491 24.5898 48.2832 25.4926 47.2577C26.3674 46.2147 27.314 45.2295 28.0853 44.104C29.4965 43.0627 30.7289 41.8075 32.063 40.6751C34.9765 38.0911 37.8883 35.5106 40.8001 32.9267Z" fill="#D47C35"/>
<path d="M56.9227 31.3928C61.1914 35.1355 65.4775 38.8607 69.7532 42.5965C70.3492 43.1101 70.9032 43.6921 71.6096 44.0602C72.4178 45.5784 73.7168 46.7529 74.7476 48.1132C75.5662 49.2334 76.6373 50.1748 77.2509 51.4352C77.4455 51.4125 77.6383 51.3827 77.8364 51.3546C77.3105 52.0418 76.888 52.7974 76.5251 53.581C74.8615 56.775 73.1839 59.962 71.5395 63.1683C70.493 64.9914 69.6971 66.9513 68.5646 68.7254C68.512 67.5544 68.6365 66.3869 68.668 65.2176C68.6926 63.5732 68.7294 61.9289 68.7241 60.2846C68.8626 60.2477 69.1414 60.1759 69.2799 60.1391C69.0116 60.0111 68.7452 59.8831 68.4805 59.7586C71.2836 56.9328 74.2672 54.2839 76.9879 51.3774C74.6354 51.3248 72.2793 51.3932 69.9267 51.4563C66.2454 51.4773 62.5657 51.5282 58.8844 51.558C57.9675 51.5755 57.0227 51.4756 56.1356 51.7701C55.9971 51.6246 55.8639 51.4773 55.7359 51.3266C56.09 46.0797 56.4441 40.8312 56.7948 35.5843C56.8614 34.1889 57.084 32.79 56.9227 31.3928Z" fill="#D47C35"/>
<path d="M4.54386 70.8027C8.9913 70.2452 13.4405 69.6948 17.8862 69.1268C18.8223 69.2723 19.7479 69.5686 20.7138 69.4739C20.0407 69.5212 19.3693 69.5966 18.6961 69.6509C21.6289 74.6313 24.6985 79.5328 27.6629 84.4956C27.9311 84.9549 28.2361 85.3932 28.5604 85.8174C28.7287 85.0969 28.8339 84.3659 28.8935 83.6314C29.4124 78.7878 30.0084 73.9511 30.5098 69.104C30.9936 69.1741 31.4424 69.3792 31.8789 69.5896C35.0151 71.0972 38.2179 72.4716 41.3225 74.0423C37.1888 77.8885 33.0569 81.7364 28.9356 85.5913C28.6165 85.7683 28.8374 86.0716 28.9548 86.303L29.025 86.3994L29.1635 86.5958C28.9829 86.5502 28.8076 86.5134 28.6288 86.4731C28.457 86.4766 28.2869 86.4993 28.1204 86.5397C20.8506 89.1394 13.579 91.7339 6.30741 94.3284C4.42115 86.8324 2.53839 79.3365 0.655635 71.8405C0.51364 71.8545 0.233153 71.8791 0.0929105 71.8913C0.161279 71.8124 0.298018 71.6547 0.366386 71.5758C0.273475 71.5372 0.0911577 71.4618 0 71.4233C0.229647 71.3304 0.45053 71.2217 0.666153 71.099L0.722251 71.1025C2.00722 71.2708 3.27116 70.9131 4.54386 70.8027Z" fill="#D47C35"/>
<path d="M66.2944 69.9858C67.0535 69.6492 67.8003 69.2215 68.64 69.1181C69.08 73.3779 69.7199 77.6168 70.237 81.8696C70.4491 83.2282 70.4947 84.6149 70.8506 85.9489C73.566 81.477 76.2657 76.9944 78.9531 72.5032C79.5141 71.5285 80.1714 70.6064 80.6465 69.5826C80.7219 69.4161 80.799 69.2495 80.8779 69.083C85.3411 69.6124 89.8009 70.1769 94.2641 70.7151C95.9382 70.9027 97.6036 71.1726 99.2865 71.269C99.5267 71.3041 99.7581 71.3655 100 71.4233C99.8913 71.4566 99.6739 71.5267 99.5653 71.5618C99.6354 71.653 99.7756 71.837 99.8457 71.9282C99.702 71.9159 99.411 71.8896 99.2672 71.8773C97.395 79.4189 95.4965 86.9534 93.6102 94.4915C86.5209 91.9881 79.4352 89.4795 72.3477 86.9745C71.7534 86.7729 71.1696 86.4731 70.5263 86.5082C70.4491 86.573 70.2966 86.7062 70.2195 86.7711L70.3527 86.4503L70.3843 86.4012C70.4947 86.2294 70.6052 86.0576 70.7173 85.8893C66.1595 81.931 61.5911 77.9832 57.0139 74.0476C60.0729 72.6189 63.2038 71.3479 66.2944 69.9858Z" fill="#D47C35"/>
<path d="M37.2397 17.7209C45.6367 17.6648 54.0337 17.6385 62.4308 17.6402C60.7198 21.6003 59.0755 25.5902 57.382 29.5573C57.1331 30.1043 56.9367 30.6723 56.786 31.2543C56.8193 31.2893 56.8877 31.3577 56.9227 31.3928C57.084 32.7899 56.8614 34.1888 56.7948 35.5843C56.4441 40.8311 56.09 46.0797 55.7359 51.3265C55.8639 51.4773 55.9971 51.6245 56.1356 51.77C56.0462 51.7946 55.8657 51.8454 55.7745 51.8699C55.5256 51.6561 55.2994 51.4194 55.0733 51.1845C55.2363 53.3004 54.763 55.4023 54.7104 57.5129C54.7893 58.002 55.2784 58.3614 55.1907 58.8996C54.9821 62.7072 55.061 66.5253 54.912 70.3364C55.8148 67.8646 56.4301 65.2999 57.1944 62.7843C57.4048 62.8001 57.6152 62.8141 57.829 62.8299C58.5232 62.8772 59.1964 62.6721 59.8608 62.4933C62.8147 61.7535 65.7703 61.0243 68.7241 60.2845C68.7294 61.9288 68.6926 63.5732 68.668 65.2175C68.6365 66.3868 68.512 67.5543 68.5646 68.7253C69.6971 66.9513 70.493 64.9914 71.5395 63.1682C73.1839 59.9619 74.8615 56.7749 76.5251 53.5809C76.888 52.7973 77.3105 52.0417 77.8364 51.3545C77.6383 51.3826 77.4455 51.4124 77.2509 51.4352C76.6373 50.1748 75.5662 49.2334 74.7476 48.1132C73.7168 46.7528 72.4178 45.5783 71.6096 44.0602C76.0238 45.2452 80.4186 46.4969 84.824 47.7082C87.145 48.3796 89.4993 48.9476 91.7993 49.6839C92.7828 52.7535 93.9012 55.7774 94.939 58.8295C96.3958 62.9736 97.7842 67.1424 99.2865 71.269C97.6036 71.1726 95.9382 70.9026 94.2641 70.715C89.8009 70.1769 85.3411 69.6124 80.8779 69.083C80.799 69.2495 80.7219 69.416 80.6465 69.5826C76.6461 69.3985 72.6422 69.2495 68.64 69.118C67.8003 69.2215 67.0535 69.6492 66.2944 69.9858C63.2038 71.3479 60.0729 72.6188 57.0139 74.0476C56.963 74.0423 56.8579 74.0318 56.807 74.0265C56.786 73.704 56.7597 73.3832 56.7352 73.0641C56.637 73.2341 56.5336 73.4007 56.4249 73.5655C55.8008 73.1728 55.2486 72.6679 54.6052 72.312C51.4743 72.4032 48.3381 72.3173 45.2055 72.3594C44.7356 72.3734 44.2676 72.3173 43.81 72.2174C43.0527 72.7784 42.2358 73.2587 41.5153 73.8652C41.468 73.9091 41.3716 73.9985 41.3225 74.0423C38.2179 72.4716 35.0151 71.0972 31.8789 69.5896C31.4424 69.3792 30.9936 69.1741 30.5098 69.104C27.2439 69.1969 23.9797 69.3529 20.7138 69.4739C19.7479 69.5686 18.8223 69.2723 17.8862 69.1268C13.4405 69.6948 8.9913 70.2452 4.54386 70.8027C3.27116 70.9131 2.00722 71.2707 0.722252 71.1025C3.10638 63.9676 5.6097 56.8713 7.95877 49.7242C14.6694 47.8572 21.3642 45.9324 28.0853 44.104C27.314 45.2294 26.3674 46.2147 25.4926 47.2577C24.5898 48.2832 23.7308 49.3491 22.7999 50.3501C22.523 50.6376 22.3179 50.9847 22.1934 51.3616L22.2144 51.5C21.9269 51.4369 21.6359 51.3896 21.3484 51.3405C21.7657 51.884 22.1811 52.4344 22.4844 53.055C23.7729 55.7178 25.2156 58.3018 26.5164 60.9577C27.7856 63.5188 29.1337 66.0397 30.4344 68.5834C30.5922 67.2335 30.466 65.8749 30.4747 64.5198C30.4362 63.1034 30.5098 61.6764 30.3082 60.2687C33.5828 61.0944 36.8645 61.9025 40.1357 62.744C40.4793 62.8229 40.8369 62.8509 41.191 62.8299C41.3944 62.8159 41.5995 62.8001 41.8046 62.7843C42.3778 65.1194 42.7863 67.493 43.4068 69.8175C43.7136 67.833 43.5786 65.8171 43.6453 63.8169C43.6032 62.0516 43.8346 60.2915 43.7785 58.5262C43.6172 58.4929 43.4577 58.4613 43.2999 58.4298C43.5857 58.1265 43.9012 57.8495 44.2623 57.6392C44.1799 55.9563 44.0344 54.2751 43.9626 52.5904C43.9573 51.9891 43.3998 51.5895 43.3192 51.0109C43.1018 46.1042 42.8248 41.1975 42.5829 36.2907C42.5584 34.6376 42.3287 32.9915 42.3936 31.3367L42.4094 31.2052C42.4812 30.8318 42.4462 30.4479 42.2867 30.1008C40.5792 25.9847 39.0295 21.8002 37.2397 17.7209Z" fill="#E58B38"/>
<path d="M55.0733 51.1846C55.2995 51.4195 55.5256 51.6561 55.7746 51.87C55.9709 53.7685 56.4372 55.625 56.7492 57.5078C57.1121 59.2433 57.3049 61.0173 57.8098 62.7213L57.8291 62.83C57.6152 62.8142 57.4049 62.8002 57.1945 62.7844C56.4302 65.3 55.8149 67.8647 54.9121 70.3365C55.0611 66.5254 54.9822 62.7073 55.1908 58.8997C55.2784 58.3615 54.7893 58.0021 54.7105 57.513C54.7631 55.4024 55.2364 53.3005 55.0733 51.1846Z" fill="#D47B36"/>
<path d="M21.3485 51.3406C21.636 51.3897 21.927 51.437 22.2145 51.5001C23.2628 52.4012 24.1954 53.4232 25.1929 54.3803C26.9915 56.2105 28.9163 57.9127 30.6921 59.7674C30.4222 59.8919 30.154 60.0181 29.8858 60.1461C29.9927 60.1759 30.2031 60.2372 30.3082 60.2688C30.5098 61.6765 30.4362 63.1034 30.4748 64.5199C30.466 65.875 30.5922 67.2336 30.4345 68.5834C29.1337 66.0398 27.7856 63.5189 26.5164 60.9577C25.2157 58.3019 23.7729 55.7179 22.4844 53.055C22.1812 52.4345 21.7657 51.884 21.3485 51.3406Z" fill="#D47B36"/>
<path d="M22.1934 51.3616C29.2336 51.4562 36.2756 51.5351 43.3175 51.607C43.2684 52.9323 42.8985 54.212 42.6759 55.5145C42.185 57.9144 41.8537 60.3511 41.2121 62.716C40.1585 60.5878 39.0909 58.4666 38.0601 56.3279C35.6059 57.4762 33.1464 58.6174 30.6921 59.7674C28.9163 57.9127 26.9915 56.2105 25.1929 54.3803C24.1954 53.4231 23.2628 52.4011 22.2145 51.5001L22.1934 51.3616Z" fill="#BD672C"/>
<path d="M69.9268 51.4563C72.2793 51.3932 74.6354 51.3248 76.988 51.3774C74.2673 54.2839 71.2836 56.9327 68.4805 59.7586C66.0087 58.6069 63.53 57.4709 61.0617 56.3139C59.9923 58.4579 58.8914 60.5843 57.8098 62.7213C57.3049 61.0173 57.1121 59.2432 56.7492 57.5077C56.4372 55.625 55.9709 53.7685 55.7745 51.87C55.8657 51.8454 56.0463 51.7946 56.1357 51.7701C57.0227 51.4756 57.9676 51.5755 58.8844 51.5579C62.5658 51.5281 66.2454 51.4773 69.9268 51.4563Z" fill="#BD672C"/>
<path d="M20.7139 69.4739C23.9798 69.3529 27.2439 69.1969 30.5098 69.104C30.0085 73.9511 29.4124 78.7878 28.8935 83.6314C28.8339 84.3659 28.7288 85.0969 28.5605 85.8174C28.2362 85.3932 27.9311 84.9549 27.6629 84.4956C24.6985 79.5328 21.629 74.6313 18.6962 69.6509C19.3693 69.5966 20.0407 69.5212 20.7139 69.4739Z" fill="#BD672C"/>
<path d="M68.6401 69.1179C72.6422 69.2494 76.6462 69.3984 80.6466 69.5825C80.1715 70.6062 79.5141 71.5283 78.9532 72.503C76.2658 76.9943 73.5661 81.4768 70.8506 85.9488C70.4948 84.6147 70.4492 83.2281 70.2371 81.8695C69.7199 77.6166 69.0801 73.3778 68.6401 69.1179Z" fill="#BD672C"/>
<path d="M30.6921 59.7676C33.1463 58.6176 35.6058 57.4764 38.06 56.3281C39.0908 58.4668 40.1584 60.588 41.212 62.7162L41.191 62.8301C40.8368 62.8512 40.4792 62.8231 40.1356 62.7442C36.8645 61.9028 33.5828 61.0946 30.3081 60.2689C30.203 60.2374 29.9926 60.176 29.8857 60.1462C30.1539 60.0183 30.4221 59.892 30.6921 59.7676Z" fill="#273445"/>
<path d="M57.8097 62.7213C58.8913 60.5844 59.9922 58.4579 61.0616 56.314C63.5299 57.471 66.0087 58.6069 68.4804 59.7587C68.7451 59.8831 69.0116 60.0111 69.2798 60.1391C69.1413 60.1759 68.8626 60.2478 68.7241 60.2846C65.7702 61.0244 62.8146 61.7536 59.8608 62.4934C59.1964 62.6722 58.5232 62.8773 57.829 62.83L57.8097 62.7213Z" fill="#273445"/>
<path d="M41.5153 73.8654C42.2358 73.2588 43.0527 72.7785 43.81 72.2175C44.2676 72.3175 44.7356 72.3735 45.2055 72.3595C48.3381 72.3175 51.4743 72.4033 54.6052 72.3122C55.2486 72.6681 55.8008 73.1729 56.4249 73.5656C56.5336 73.4008 56.637 73.2343 56.7352 73.0642C56.7597 73.3833 56.786 73.7041 56.807 74.0267C57.1033 77.3171 57.6502 80.583 57.9325 83.8734C57.4592 83.1933 56.949 82.5411 56.4406 81.889C51.5725 81.8855 46.7025 81.8855 41.8344 81.8715C41.5346 82.2817 41.2401 82.6972 40.9491 83.1144C40.8369 83.0793 40.6108 83.0075 40.4986 82.9706C40.7826 79.9309 41.2804 76.9104 41.5153 73.8654Z" fill="#161616"/>
<path d="M41.3225 74.0425C41.3716 73.9987 41.468 73.9093 41.5153 73.8655C41.2804 76.9105 40.7826 79.931 40.4986 82.9707C40.488 84.4293 40.6335 85.8843 40.6318 87.3428C39.885 87.5093 39.1154 87.6426 38.3493 87.5339C35.2167 87.1359 32.0963 86.6398 28.9548 86.3032C28.8374 86.0718 28.6165 85.7686 28.9356 85.5915C33.0569 81.7366 37.1888 77.8887 41.3225 74.0425Z" fill="#D3C2B5"/>
<path d="M56.8071 74.0269C56.8579 74.0321 56.9631 74.0426 57.0139 74.0479C61.5911 77.9834 66.1595 81.9313 70.7174 85.8896C70.6052 86.0579 70.4948 86.2297 70.3843 86.4015C67.4673 86.6031 64.5765 87.087 61.6717 87.4078C60.4148 87.6304 59.1298 87.6584 57.8764 87.4078C57.8238 86.228 57.8449 85.0482 57.9325 83.8736C57.6503 80.5832 57.1033 77.3173 56.8071 74.0269Z" fill="#D3C2B5"/>
<path d="M40.9491 83.1145C41.2401 82.6973 41.5346 82.2818 41.8344 81.8716C46.7026 81.8856 51.5725 81.8856 56.4407 81.8891C56.949 82.5412 57.4592 83.1934 57.9325 83.8735C57.8448 85.0481 57.8238 86.2279 57.8764 87.4077C59.1298 87.6583 60.4148 87.6303 61.6717 87.4077C64.5765 87.0869 67.4672 86.603 70.3843 86.4014L70.3527 86.4505C68.9205 87.2639 67.5373 88.172 66.0806 88.9345C63.0706 89.8303 60.0379 90.656 57.0332 91.5676C56.5458 91.6728 56.0445 91.5764 55.5519 91.5869C50.5978 91.5834 45.642 91.5553 40.6897 91.5851C40.7668 91.5343 40.9193 91.4326 40.9947 91.3818C38.8016 90.6876 36.6068 89.9969 34.412 89.3044C33.7704 89.0976 33.092 88.9538 32.524 88.5734C31.3653 87.8371 30.1977 87.1132 29.025 86.3997L28.9548 86.3033C32.0963 86.6398 35.2167 87.1359 38.3494 87.5339C39.1154 87.6426 39.885 87.5093 40.6318 87.3428C40.6336 85.8843 40.4881 84.4293 40.4986 82.9707C40.6108 83.0076 40.8369 83.0794 40.9491 83.1145Z" fill="#BDAEA0"/>
</svg>
