<svg width="280" height="326" viewBox="0 0 280 326" fill="none" xmlns="http://www.w3.org/2000/svg">
<path d="M68.3389 119.223C68.3389 119.223 64.5841 100.45 84.4426 77.7142C104.303 54.9794 119.203 46.7122 135.296 42.4058C135.296 42.4058 135.283 42.4141 135.268 42.4224C135.289 42.417 135.309 42.4112 135.329 42.4058C135.329 42.4058 122.688 49.8131 122.688 61.0068C122.688 64.2561 123.202 66.4887 123.916 67.9801C124.863 69.9615 126.362 70.6352 127.708 70.6417C128.842 70.6482 129.506 70.1792 130.941 69.6185V130.244C130.941 130.244 131.097 131.222 131.969 132.38C133.225 134.045 135.199 136.078 138.907 136.098C145.234 136.058 153.191 128.868 153.191 128.868V79.7812C153.191 74.7874 149.639 68.7589 145.874 66.6905C145.874 66.6905 146.387 66.6581 147.217 66.6584C149.703 66.6577 155.035 66.9436 158.006 69.2271C158.831 68.265 172.152 53.1017 195.854 48.4357C195.854 48.4357 195.85 48.4404 195.842 48.4491C195.864 48.4448 195.885 48.4401 195.907 48.4357C195.907 48.4357 182.797 63.9658 178.688 71.6673C177.958 71.711 177.851 86.2786 177.973 100.835C178.091 114.886 178.423 128.93 178.615 129.901C178.615 129.901 180.014 131.993 183.576 132.011C187.594 132.032 194.365 129.413 204.98 118.188L204.979 118.188L204.98 118.188C204.98 118.188 204.7 118.827 204.136 119.96C201.094 126.075 189.791 146.575 169.712 158.491L169.711 158.49C169.711 158.49 169.71 158.491 169.71 158.491L156.686 147.41L156.354 147.13L142.15 162.282C142.15 162.282 142.142 162.281 142.128 162.28L142.126 162.282C142.126 162.282 109.745 159.526 96.2209 139.892C96.2209 139.892 96.2464 139.902 96.2848 139.916C96.279 139.908 96.2733 139.9 96.2679 139.892C96.2679 139.892 98.316 140.694 100.627 140.738C103.336 140.788 106.18 139.792 106.18 135.24V89.082C106.18 86.7249 104.567 84.0807 101.026 84.0908C97.8412 84.0991 93.2693 86.2548 87.0264 92.6988C73.8439 106.304 68.3694 119.223 68.3694 119.223C68.3694 119.223 68.3659 119.205 68.3601 119.174C68.3472 119.204 68.3389 119.223 68.3389 119.223ZM140.272 197.479C165.531 197.479 189.278 187.583 207.139 169.615C225 151.646 234.836 127.755 234.836 102.344C234.836 76.9323 225 53.0418 207.139 35.0729C189.278 17.1044 165.531 7.20854 140.272 7.20854C115.013 7.20854 91.2657 17.1044 73.4047 35.0729C55.544 53.0418 45.7075 76.9323 45.7075 102.344C45.7075 127.755 55.544 151.646 73.4047 169.615C91.2657 187.583 115.013 197.479 140.272 197.479Z" fill="white"/>
<path d="M140.273 2.82903C194.904 2.82903 239.191 47.3835 239.191 102.344C239.191 157.304 194.904 201.859 140.273 201.859C85.6426 201.859 41.3555 157.304 41.3555 102.344C41.3555 47.3835 85.6426 2.82903 140.273 2.82903ZM140.273 204.688C167.446 204.688 192.993 194.043 212.207 174.712C231.422 155.382 242.003 129.681 242.003 102.344C242.003 75.007 231.422 49.306 212.207 29.9757C192.993 10.6453 167.446 -1.52588e-05 140.273 -1.52588e-05C113.1 -1.52588e-05 87.5536 10.6453 68.3392 29.9757C49.1249 49.306 38.5435 75.007 38.5435 102.344C38.5435 129.681 49.1249 155.382 68.3392 174.712C87.5536 194.043 113.1 204.688 140.273 204.688Z" fill="white"/>
<path d="M256.44 285.928V259.322H246.432V293.791H280V285.928H256.44Z" fill="white"/>
<path d="M134.42 317.395H138.269H141.895C142.081 319.378 141.5 320.38 139.889 320.535C138.291 320.689 136.684 320.82 135.08 320.824C128.417 320.84 127.703 320.055 128.107 313.361C128.114 313.236 128.118 313.111 128.13 312.987C128.38 310.491 129.294 309.547 131.781 309.431C133.698 309.342 135.621 309.397 137.541 309.381C139.541 309.365 141.448 309.507 141.935 311.862H146.847C147.539 307.909 146.251 305.757 142.477 305.534C137.617 305.247 132.716 305.292 127.854 305.567C124.585 305.751 122.907 307.689 122.716 310.909C122.551 313.701 122.56 316.517 122.714 319.309C122.878 322.287 124.262 323.775 127.157 324.521C128.225 324.795 129.31 325.004 130.387 325.242H140.064C140.842 325.076 141.618 324.901 142.399 324.745C144.488 324.33 146.543 323.653 146.963 321.27C147.377 318.92 147.358 316.492 147.538 313.964H134.42V317.395Z" fill="white"/>
<path d="M95.9385 293.643V259.424H86.1043V285.557C79.0791 276.406 72.4266 267.741 65.9191 259.265H50.512V293.687H60.3031V268.094L60.7593 267.978C67.4596 276.591 74.1598 285.205 80.7245 293.643H95.9385Z" fill="white"/>
<path d="M113.644 276.557V266.701C118.188 266.701 122.621 266.7 127.055 266.702C127.673 266.702 128.292 266.72 128.91 266.724C134.419 266.761 134.996 268.379 134.443 273.83C134.263 275.604 132.927 276.49 131.352 276.517C125.497 276.617 119.64 276.557 113.644 276.557ZM134.651 289.064C134.784 290.586 134.855 292.113 134.956 293.67H144.778C144.778 291.514 144.86 289.528 144.761 287.552C144.545 283.205 143.909 281.286 139.7 280.552C139.48 280.513 139.286 280.322 138.768 280.02C142.999 279.073 144.515 276.198 144.715 272.456C144.815 270.599 144.781 268.706 144.535 266.866C143.938 262.391 142.305 260.623 137.925 259.795C135.746 259.382 133.502 259.162 131.284 259.143C122.792 259.069 114.299 259.109 105.806 259.118C105.144 259.119 104.482 259.201 103.705 259.253V293.656H113.58V284.164C115.828 284.164 117.864 284.123 119.897 284.174C123.486 284.264 127.096 284.206 130.656 284.596C133.571 284.916 134.393 286.111 134.651 289.064Z" fill="white"/>
<path d="M161.868 279.796H187.468V272.845H161.826V266.635H188.939V259.328H151.8V293.678H189.396V286.118H161.868V279.796Z" fill="white"/>
<path d="M43.1049 260.312C43.1064 259.968 42.8954 259.623 42.7897 259.298H32.9863C32.9863 265.401 33.006 271.318 32.9733 277.236C32.964 278.852 32.8579 280.473 32.686 282.08C32.4385 284.386 30.9919 285.838 28.8109 285.949C24.3084 286.177 19.7735 286.344 15.2836 286.048C11.6672 285.811 10.4926 284.178 10.4513 280.471C10.3806 274.107 10.413 267.742 10.3813 261.377C10.378 260.668 10.2381 259.958 10.1618 259.254H0.365817C0.365817 267.808 0.0729167 276.11 0.466302 284.38C0.739849 290.127 3.1091 292.392 8.87367 293.363C17.2408 294.773 25.694 294.714 34.0615 293.463C40.451 292.507 42.6196 290.12 42.9017 283.702C43.2438 275.917 43.0744 268.11 43.1049 260.312Z" fill="white"/>
<path d="M209.81 280.295C212.194 275.58 214.508 271.005 217.073 265.932C219.635 270.947 221.955 275.485 224.413 280.295H209.81ZM210.852 259.213C204.688 270.646 198.541 282.046 192.252 293.709H202.994C204.072 291.644 205.098 289.675 206.1 287.754H228.182C229.25 289.788 230.287 291.761 231.299 293.688H242.154C235.755 281.892 229.57 270.49 223.453 259.213H210.852Z" fill="white"/>
<path d="M112.257 319.626C112.104 319.662 111.952 319.698 111.799 319.735C108.024 314.839 104.249 309.943 100.626 305.245H91.9175V324.689H97.2887V310.503C97.4714 310.438 97.6538 310.373 97.8361 310.308C101.632 315.161 105.428 320.014 109.108 324.718H117.804V305.29H112.257V319.626Z" fill="white"/>
<path d="M182.224 319.636C182.076 319.674 181.928 319.713 181.78 319.752C178.085 314.954 174.39 310.156 170.81 305.509H162.137V324.65H167.637V309.973C171.74 315.242 175.476 320.04 179.133 324.736H187.696V305.57H182.224V319.636Z" fill="white"/>
<path d="M72.3439 316.908H86.9241V312.895H72.3446V309.283H87.7235V305.229H66.7881V324.673H88.1147V320.54H72.3439V316.908Z" fill="white"/>
<path d="M198.475 316.901H212.787V312.992H198.53V309.385H213.629V305.528H192.847V324.66H213.965V320.559H198.475V316.901Z" fill="white"/>
<path d="M151.849 324.712H157.172V305.546H151.849V324.712Z" fill="white"/>
</svg>
