<svg width="768" height="296" viewBox="0 0 768 296" fill="none" xmlns="http://www.w3.org/2000/svg">
<path d="M174.657 88.3792H138.92C136.211 88.3792 134.015 90.5774 134.015 93.2891V127.308C134.015 130.02 136.211 132.218 138.92 132.218H174.657C177.366 132.218 179.562 130.02 179.562 127.308V93.2891C179.562 90.5774 177.366 88.3792 174.657 88.3792Z" fill="white" fill-opacity="0.1" stroke="#F2F2F4" stroke-miterlimit="10"/>
<path d="M153.754 114.718L156.375 105.396C156.418 105.215 156.525 105.056 156.675 104.948C156.826 104.84 157.01 104.79 157.195 104.806C157.377 104.789 157.559 104.839 157.707 104.948C157.854 105.057 157.956 105.216 157.994 105.396L160.537 114.704L162.079 105.41C162.142 104.996 162.345 104.778 162.717 104.778C162.796 104.777 162.874 104.792 162.947 104.823C163.02 104.853 163.087 104.897 163.142 104.953C163.198 105.01 163.242 105.077 163.271 105.15C163.3 105.224 163.314 105.303 163.312 105.382C163.319 105.428 163.319 105.475 163.312 105.522L161.525 115.475C161.481 115.7 161.359 115.901 161.181 116.045C161.003 116.189 160.78 116.265 160.551 116.261C160.338 116.268 160.13 116.202 159.959 116.075C159.788 115.947 159.666 115.765 159.612 115.559L157.167 106.616L154.742 115.307C154.56 116.008 154.126 116.289 153.726 116.289C153.485 116.273 153.257 116.174 153.081 116.009C152.905 115.844 152.791 115.623 152.759 115.384L151 105.522C150.994 105.475 150.994 105.428 151 105.382C150.999 105.305 151.014 105.228 151.043 105.157C151.073 105.086 151.116 105.021 151.171 104.968C151.226 104.914 151.292 104.872 151.364 104.844C151.435 104.816 151.512 104.804 151.589 104.806C151.925 104.806 152.128 104.996 152.192 105.382L153.754 114.718Z" fill="#F2F2F4"/>
<path d="M655.533 270.573H619.796C617.087 270.573 614.891 272.772 614.891 275.483V290.739C614.891 293.451 617.087 295.649 619.796 295.649H655.533C658.242 295.649 660.438 293.451 660.438 290.739V275.483C660.438 272.772 658.242 270.573 655.533 270.573Z" fill="white" fill-opacity="0.1" stroke="#F2F2F4" stroke-miterlimit="10"/>
<path d="M762.394 270.573H726.657C723.948 270.573 721.752 272.772 721.752 275.483V290.739C721.752 293.451 723.948 295.649 726.657 295.649H762.394C765.103 295.649 767.299 293.451 767.299 290.739V275.483C767.299 272.772 765.103 270.573 762.394 270.573Z" fill="white" fill-opacity="0.1" stroke="#F2F2F4" stroke-miterlimit="10"/>
<path d="M134.54 140.635H98.8029C96.0939 140.635 93.8978 142.833 93.8978 145.545V179.564C93.8978 182.276 96.0939 184.474 98.8029 184.474H134.54C137.249 184.474 139.445 182.276 139.445 179.564V145.545C139.445 142.833 137.249 140.635 134.54 140.635Z" fill="white" fill-opacity="0.1" stroke="#F2F2F4" stroke-miterlimit="10"/>
<path d="M187.971 140.635H152.234C149.525 140.635 147.328 142.833 147.328 145.545V179.564C147.328 182.276 149.525 184.474 152.234 184.474H187.971C190.68 184.474 192.876 182.276 192.876 179.564V145.545C192.876 142.833 190.68 140.635 187.971 140.635Z" fill="white" fill-opacity="0.1" stroke="#F2F2F4" stroke-miterlimit="10"/>
<path d="M241.401 140.635H205.664C202.955 140.635 200.759 142.833 200.759 145.545V179.564C200.759 182.276 202.955 184.474 205.664 184.474H241.401C244.11 184.474 246.307 182.276 246.307 179.564V145.545C246.307 142.833 244.11 140.635 241.401 140.635Z" fill="white" fill-opacity="0.1" stroke="#F2F2F4" stroke-miterlimit="10"/>
<path d="M119.355 166.174H114.051L113.42 167.927C113.28 168.313 113.049 168.517 112.719 168.517C112.65 168.519 112.581 168.507 112.517 168.48C112.453 168.453 112.395 168.412 112.349 168.361C112.302 168.309 112.267 168.248 112.246 168.182C112.226 168.116 112.22 168.045 112.229 167.977C112.233 167.871 112.252 167.768 112.285 167.668L115.789 157.792C115.841 157.595 115.957 157.421 116.119 157.297C116.28 157.173 116.478 157.106 116.682 157.106C116.886 157.106 117.084 157.173 117.245 157.297C117.407 157.421 117.523 157.595 117.575 157.792L121.177 167.64C121.217 167.743 121.238 167.852 121.24 167.962C121.246 168.033 121.236 168.104 121.211 168.17C121.186 168.236 121.148 168.296 121.098 168.346C121.048 168.396 120.988 168.435 120.922 168.459C120.856 168.484 120.785 168.494 120.715 168.489C120.594 168.498 120.474 168.466 120.374 168.398C120.273 168.331 120.198 168.232 120.161 168.117L119.355 166.174ZM114.38 164.995H118.942L116.693 158.683L114.38 164.995Z" fill="#F2F2F4"/>
<path d="M169.969 158.037C169.455 158.037 168.961 158.239 168.594 158.6C168.227 158.961 168.016 159.451 168.007 159.966C168.007 160.955 169.331 161.523 170.642 162.232C171.952 162.94 173.515 163.747 173.515 165.353C173.515 167.563 171.861 168.699 169.738 168.699C168.796 168.709 167.872 168.441 167.082 167.927C166.957 167.858 166.853 167.756 166.78 167.633C166.708 167.509 166.669 167.369 166.669 167.226C166.658 167.154 166.664 167.081 166.687 167.013C166.71 166.944 166.748 166.882 166.799 166.83C166.85 166.779 166.912 166.741 166.981 166.718C167.05 166.696 167.123 166.689 167.194 166.7C167.388 166.709 167.575 166.772 167.734 166.882C168.351 167.258 169.057 167.462 169.78 167.471C171.125 167.471 172.26 166.882 172.26 165.367C172.26 164.441 171.153 163.852 169.948 163.221C168.441 162.435 166.746 161.573 166.746 159.966C166.746 157.946 168.287 156.768 170.214 156.768C171.133 156.779 172.034 157.02 172.835 157.469C172.963 157.537 173.069 157.638 173.145 157.761C173.22 157.885 173.261 158.026 173.262 158.171C173.267 158.246 173.257 158.321 173.232 158.392C173.208 158.464 173.169 158.529 173.119 158.585C173.069 158.641 173.008 158.687 172.94 158.719C172.872 158.752 172.798 158.77 172.723 158.774C172.508 158.732 172.308 158.636 172.141 158.493C171.466 158.164 170.72 158.007 169.969 158.037Z" fill="#F2F2F4"/>
<path d="M219.244 157.82C219.244 157.329 219.532 157.083 220.134 157.083H223.19C226.224 157.083 227.786 160.015 227.786 162.835C227.786 165.655 225.901 168.503 222.881 168.503H219.889C219.399 168.503 219.244 168.411 219.244 167.871V157.82ZM220.38 158.206V167.373H222.832C225.285 167.373 226.595 165.122 226.595 162.835C226.595 160.548 225.404 158.206 223.049 158.206H220.38Z" fill="#F2F2F4"/>
<path d="M709.664 244.796H672.526C670.204 244.796 668.321 246.68 668.321 249.005V291.441C668.321 293.765 670.204 295.649 672.526 295.649H709.664C711.986 295.649 713.869 293.765 713.869 291.441V249.005C713.869 246.68 711.986 244.796 709.664 244.796Z" fill="white" fill-opacity="0.1" stroke="#F2F2F4" stroke-miterlimit="10"/>
<path d="M688.867 258.046L691.634 252.379L694.409 258.046H688.867Z" fill="#F2F2F4"/>
<path d="M694.409 283.108L691.634 288.782L688.867 283.108H694.409Z" fill="#F2F2F4"/>
<path d="M640.236 285.886L634.567 283.115L640.236 280.337V285.886Z" fill="#F2F2F4"/>
<path d="M742.423 280.337L748.085 283.108L742.423 285.886V280.337Z" fill="#F2F2F4"/>
<path d="M43.0949 0.350708H5.25548C2.54646 0.350708 0.350372 2.54897 0.350372 5.26066V23.1469C0.350372 25.8586 2.54646 28.0569 5.25548 28.0569H43.0949C45.8039 28.0569 48 25.8586 48 23.1469V5.26066C48 2.54897 45.8039 0.350708 43.0949 0.350708Z" stroke="#838996" stroke-miterlimit="10"/>
<path d="M40.9927 36.4739H5.25548C2.54646 36.4739 0.350372 38.6722 0.350372 41.3839V75.4028C0.350372 78.1145 2.54646 80.3128 5.25548 80.3128H40.9927C43.7017 80.3128 45.8978 78.1145 45.8978 75.4028V41.3839C45.8978 38.6722 43.7017 36.4739 40.9927 36.4739Z" stroke="#838996" stroke-miterlimit="10"/>
<path d="M67.2701 88.3792H5.25548C2.54646 88.3792 0.350372 90.5774 0.350372 93.2891V127.308C0.350372 130.02 2.54646 132.218 5.25548 132.218H67.2701C69.9791 132.218 72.1752 130.02 72.1752 127.308V93.2891C72.1752 90.5774 69.9791 88.3792 67.2701 88.3792Z" stroke="#838996" stroke-miterlimit="10"/>
<path d="M80.9343 140.635H5.25548C2.54646 140.635 0.350372 142.833 0.350372 145.545V179.564C0.350372 182.276 2.54646 184.474 5.25548 184.474H80.9343C83.6433 184.474 85.8394 182.276 85.8394 179.564V145.545C85.8394 142.833 83.6433 140.635 80.9343 140.635Z" stroke="#838996" stroke-miterlimit="10"/>
<path d="M107.912 192.54H5.25548C2.54646 192.54 0.350372 194.739 0.350372 197.45V231.469C0.350372 234.181 2.54646 236.379 5.25548 236.379H107.912C110.621 236.379 112.818 234.181 112.818 231.469V197.45C112.818 194.739 110.621 192.54 107.912 192.54Z" stroke="#838996" stroke-miterlimit="10"/>
<path d="M40.9927 244.796H5.25548C2.54646 244.796 0.350372 246.994 0.350372 249.706V290.739C0.350372 293.451 2.54646 295.649 5.25548 295.649H40.9927C43.7017 295.649 45.8978 293.451 45.8978 290.739V249.706C45.8978 246.994 43.7017 244.796 40.9927 244.796Z" stroke="#838996" stroke-miterlimit="10"/>
<path d="M94.2482 244.796H58.5109C55.8019 244.796 53.6058 246.994 53.6058 249.706V290.739C53.6058 293.451 55.8019 295.649 58.5109 295.649H94.2482C96.9572 295.649 99.1533 293.451 99.1533 290.739V249.706C99.1533 246.994 96.9572 244.796 94.2482 244.796Z" stroke="#838996" stroke-miterlimit="10"/>
<path d="M147.504 244.796H111.766C109.057 244.796 106.861 246.994 106.861 249.706V290.739C106.861 293.451 109.057 295.649 111.766 295.649H147.504C150.213 295.649 152.409 293.451 152.409 290.739V249.706C152.409 246.994 150.213 244.796 147.504 244.796Z" stroke="#838996" stroke-miterlimit="10"/>
<path d="M214.599 244.796H165.723C163.014 244.796 160.818 246.994 160.818 249.706V290.739C160.818 293.451 163.014 295.649 165.723 295.649H214.599C217.308 295.649 219.504 293.451 219.504 290.739V249.706C219.504 246.994 217.308 244.796 214.599 244.796Z" stroke="#838996" stroke-miterlimit="10"/>
<path d="M481.752 244.796H232.292C229.583 244.796 227.387 246.994 227.387 249.706V290.739C227.387 293.451 229.583 295.649 232.292 295.649H481.752C484.461 295.649 486.657 293.451 486.657 290.739V249.706C486.657 246.994 484.461 244.796 481.752 244.796Z" stroke="#838996" stroke-miterlimit="10"/>
<path d="M94.4234 36.4739H58.6861C55.9771 36.4739 53.781 38.6722 53.781 41.3839V75.4028C53.781 78.1145 55.9771 80.3128 58.6861 80.3128H94.4234C97.1324 80.3128 99.3285 78.1145 99.3285 75.4028V41.3839C99.3285 38.6722 97.1324 36.4739 94.4234 36.4739Z" stroke="#838996" stroke-miterlimit="10"/>
<path d="M121.226 88.3792H85.4891C82.78 88.3792 80.584 90.5774 80.584 93.2891V127.308C80.584 130.02 82.78 132.218 85.4891 132.218H121.226C123.935 132.218 126.131 130.02 126.131 127.308V93.2891C126.131 90.5774 123.935 88.3792 121.226 88.3792Z" stroke="#838996" stroke-miterlimit="10"/>
<path d="M161.168 192.54H125.431C122.722 192.54 120.526 194.739 120.526 197.45V231.469C120.526 234.181 122.722 236.379 125.431 236.379H161.168C163.877 236.379 166.073 234.181 166.073 231.469V197.45C166.073 194.739 163.877 192.54 161.168 192.54Z" stroke="#838996" stroke-miterlimit="10"/>
<path d="M214.599 192.54H178.861C176.152 192.54 173.956 194.739 173.956 197.45V231.469C173.956 234.181 176.152 236.379 178.861 236.379H214.599C217.308 236.379 219.504 234.181 219.504 231.469V197.45C219.504 194.739 217.308 192.54 214.599 192.54Z" stroke="#838996" stroke-miterlimit="10"/>
<path d="M268.029 192.54H232.292C229.583 192.54 227.387 194.739 227.387 197.45V231.469C227.387 234.181 229.583 236.379 232.292 236.379H268.029C270.738 236.379 272.934 234.181 272.934 231.469V197.45C272.934 194.739 270.738 192.54 268.029 192.54Z" stroke="#838996" stroke-miterlimit="10"/>
<path d="M321.46 192.54H285.723C283.014 192.54 280.818 194.739 280.818 197.45V231.469C280.818 234.181 283.014 236.379 285.723 236.379H321.46C324.169 236.379 326.365 234.181 326.365 231.469V197.45C326.365 194.739 324.169 192.54 321.46 192.54Z" stroke="#838996" stroke-miterlimit="10"/>
<path d="M374.891 192.54H339.153C336.444 192.54 334.248 194.739 334.248 197.45V231.469C334.248 234.181 336.444 236.379 339.153 236.379H374.891C377.6 236.379 379.796 234.181 379.796 231.469V197.45C379.796 194.739 377.6 192.54 374.891 192.54Z" stroke="#838996" stroke-miterlimit="10"/>
<path d="M428.321 192.54H392.584C389.875 192.54 387.679 194.739 387.679 197.45V231.469C387.679 234.181 389.875 236.379 392.584 236.379H428.321C431.03 236.379 433.226 234.181 433.226 231.469V197.45C433.226 194.739 431.03 192.54 428.321 192.54Z" stroke="#838996" stroke-miterlimit="10"/>
<path d="M481.752 192.54H446.015C443.306 192.54 441.109 194.739 441.109 197.45V231.469C441.109 234.181 443.306 236.379 446.015 236.379H481.752C484.461 236.379 486.657 234.181 486.657 231.469V197.45C486.657 194.739 484.461 192.54 481.752 192.54Z" stroke="#838996" stroke-miterlimit="10"/>
<path d="M535.183 192.54H499.445C496.736 192.54 494.54 194.739 494.54 197.45V231.469C494.54 234.181 496.736 236.379 499.445 236.379H535.183C537.892 236.379 540.088 234.181 540.088 231.469V197.45C540.088 194.739 537.892 192.54 535.183 192.54Z" stroke="#838996" stroke-miterlimit="10"/>
<path d="M548.672 244.796H499.445C496.736 244.796 494.54 246.994 494.54 249.706V290.739C494.54 293.451 496.736 295.649 499.445 295.649H548.672C551.381 295.649 553.577 293.451 553.577 290.739V249.706C553.577 246.994 551.381 244.796 548.672 244.796Z" stroke="#838996" stroke-miterlimit="10"/>
<path d="M602.102 244.796H566.365C563.656 244.796 561.46 246.994 561.46 249.706V290.739C561.46 293.451 563.656 295.649 566.365 295.649H602.102C604.811 295.649 607.007 293.451 607.007 290.739V249.706C607.007 246.994 604.811 244.796 602.102 244.796Z" stroke="#838996" stroke-miterlimit="10"/>
<path d="M588.613 192.54H552.876C550.167 192.54 547.971 194.739 547.971 197.45V231.469C547.971 234.181 550.167 236.379 552.876 236.379H588.613C591.322 236.379 593.518 234.181 593.518 231.469V197.45C593.518 194.739 591.322 192.54 588.613 192.54Z" stroke="#838996" stroke-miterlimit="10"/>
<path d="M642.044 192.54H606.307C603.598 192.54 601.401 194.739 601.401 197.45V231.469C601.401 234.181 603.598 236.379 606.307 236.379H642.044C644.753 236.379 646.949 234.181 646.949 231.469V197.45C646.949 194.739 644.753 192.54 642.044 192.54Z" stroke="#838996" stroke-miterlimit="10"/>
<path d="M762.394 192.54H659.737C657.028 192.54 654.832 194.739 654.832 197.45V231.469C654.832 234.181 657.028 236.379 659.737 236.379H762.394C765.103 236.379 767.299 234.181 767.299 231.469V197.45C767.299 194.739 765.103 192.54 762.394 192.54Z" stroke="#838996" stroke-miterlimit="10"/>
<path d="M294.832 140.635H259.095C256.386 140.635 254.19 142.833 254.19 145.545V179.564C254.19 182.276 256.386 184.474 259.095 184.474H294.832C297.541 184.474 299.737 182.276 299.737 179.564V145.545C299.737 142.833 297.541 140.635 294.832 140.635Z" stroke="#838996" stroke-miterlimit="10"/>
<path d="M348.263 140.635H312.526C309.817 140.635 307.62 142.833 307.62 145.545V179.564C307.62 182.276 309.817 184.474 312.526 184.474H348.263C350.972 184.474 353.168 182.276 353.168 179.564V145.545C353.168 142.833 350.972 140.635 348.263 140.635Z" stroke="#838996" stroke-miterlimit="10"/>
<path d="M401.693 140.635H365.956C363.247 140.635 361.051 142.833 361.051 145.545V179.564C361.051 182.276 363.247 184.474 365.956 184.474H401.693C404.402 184.474 406.599 182.276 406.599 179.564V145.545C406.599 142.833 404.402 140.635 401.693 140.635Z" stroke="#838996" stroke-miterlimit="10"/>
<path d="M455.124 140.635H419.387C416.678 140.635 414.482 142.833 414.482 145.545V179.564C414.482 182.276 416.678 184.474 419.387 184.474H455.124C457.833 184.474 460.029 182.276 460.029 179.564V145.545C460.029 142.833 457.833 140.635 455.124 140.635Z" stroke="#838996" stroke-miterlimit="10"/>
<path d="M508.555 140.635H472.818C470.109 140.635 467.912 142.833 467.912 145.545V179.564C467.912 182.276 470.109 184.474 472.818 184.474H508.555C511.264 184.474 513.46 182.276 513.46 179.564V145.545C513.46 142.833 511.264 140.635 508.555 140.635Z" stroke="#838996" stroke-miterlimit="10"/>
<path d="M561.985 140.635H526.248C523.539 140.635 521.343 142.833 521.343 145.545V179.564C521.343 182.276 523.539 184.474 526.248 184.474H561.985C564.694 184.474 566.891 182.276 566.891 179.564V145.545C566.891 142.833 564.694 140.635 561.985 140.635Z" stroke="#838996" stroke-miterlimit="10"/>
<path d="M615.416 140.635H579.679C576.97 140.635 574.774 142.833 574.774 145.545V179.564C574.774 182.276 576.97 184.474 579.679 184.474H615.416C618.125 184.474 620.321 182.276 620.321 179.564V145.545C620.321 142.833 618.125 140.635 615.416 140.635Z" stroke="#838996" stroke-miterlimit="10"/>
<path d="M668.847 140.635H633.109C630.4 140.635 628.204 142.833 628.204 145.545V179.564C628.204 182.276 630.4 184.474 633.109 184.474H668.847C671.556 184.474 673.752 182.276 673.752 179.564V145.545C673.752 142.833 671.556 140.635 668.847 140.635Z" stroke="#838996" stroke-miterlimit="10"/>
<path d="M762.394 140.635H686.54C683.831 140.635 681.635 142.833 681.635 145.545V179.564C681.635 182.276 683.831 184.474 686.54 184.474H762.394C765.103 184.474 767.299 182.276 767.299 179.564V145.545C767.299 142.833 765.103 140.635 762.394 140.635Z" stroke="#838996" stroke-miterlimit="10"/>
<path d="M228.088 88.3792H192.35C189.641 88.3792 187.445 90.5774 187.445 93.2891V127.308C187.445 130.02 189.641 132.218 192.35 132.218H228.088C230.797 132.218 232.993 130.02 232.993 127.308V93.2891C232.993 90.5774 230.797 88.3792 228.088 88.3792Z" stroke="#838996" stroke-miterlimit="10"/>
<path d="M281.518 88.3792H245.781C243.072 88.3792 240.876 90.5774 240.876 93.2891V127.308C240.876 130.02 243.072 132.218 245.781 132.218H281.518C284.227 132.218 286.423 130.02 286.423 127.308V93.2891C286.423 90.5774 284.227 88.3792 281.518 88.3792Z" stroke="#838996" stroke-miterlimit="10"/>
<path d="M334.949 88.3792H299.212C296.503 88.3792 294.307 90.5774 294.307 93.2891V127.308C294.307 130.02 296.503 132.218 299.212 132.218H334.949C337.658 132.218 339.854 130.02 339.854 127.308V93.2891C339.854 90.5774 337.658 88.3792 334.949 88.3792Z" stroke="#838996" stroke-miterlimit="10"/>
<path d="M388.38 88.3792H352.642C349.933 88.3792 347.737 90.5774 347.737 93.2891V127.308C347.737 130.02 349.933 132.218 352.642 132.218H388.38C391.089 132.218 393.285 130.02 393.285 127.308V93.2891C393.285 90.5774 391.089 88.3792 388.38 88.3792Z" stroke="#838996" stroke-miterlimit="10"/>
<path d="M441.81 88.3792H406.073C403.364 88.3792 401.168 90.5774 401.168 93.2891V127.308C401.168 130.02 403.364 132.218 406.073 132.218H441.81C444.519 132.218 446.715 130.02 446.715 127.308V93.2891C446.715 90.5774 444.519 88.3792 441.81 88.3792Z" stroke="#838996" stroke-miterlimit="10"/>
<path d="M495.241 88.3792H459.504C456.795 88.3792 454.599 90.5774 454.599 93.2891V127.308C454.599 130.02 456.795 132.218 459.504 132.218H495.241C497.95 132.218 500.146 130.02 500.146 127.308V93.2891C500.146 90.5774 497.95 88.3792 495.241 88.3792Z" stroke="#838996" stroke-miterlimit="10"/>
<path d="M548.672 88.3792H512.934C510.225 88.3792 508.029 90.5774 508.029 93.2891V127.308C508.029 130.02 510.225 132.218 512.934 132.218H548.672C551.381 132.218 553.577 130.02 553.577 127.308V93.2891C553.577 90.5774 551.381 88.3792 548.672 88.3792Z" stroke="#838996" stroke-miterlimit="10"/>
<path d="M602.102 88.3792H566.365C563.656 88.3792 561.46 90.5774 561.46 93.2891V127.308C561.46 130.02 563.656 132.218 566.365 132.218H602.102C604.811 132.218 607.007 130.02 607.007 127.308V93.2891C607.007 90.5774 604.811 88.3792 602.102 88.3792Z" stroke="#838996" stroke-miterlimit="10"/>
<path d="M655.533 88.3792H619.796C617.087 88.3792 614.891 90.5774 614.891 93.2891V127.308C614.891 130.02 617.087 132.218 619.796 132.218H655.533C658.242 132.218 660.438 130.02 660.438 127.308V93.2891C660.438 90.5774 658.242 88.3792 655.533 88.3792Z" stroke="#838996" stroke-miterlimit="10"/>
<path d="M708.964 88.3792H673.226C670.517 88.3792 668.321 90.5774 668.321 93.2891V127.308C668.321 130.02 670.517 132.218 673.226 132.218H708.964C711.673 132.218 713.869 130.02 713.869 127.308V93.2891C713.869 90.5774 711.673 88.3792 708.964 88.3792Z" stroke="#838996" stroke-miterlimit="10"/>
<path d="M762.394 88.3792H726.657C723.948 88.3792 721.752 90.5774 721.752 93.2891V127.308C721.752 130.02 723.948 132.218 726.657 132.218H762.394C765.103 132.218 767.299 130.02 767.299 127.308V93.2891C767.299 90.5774 765.103 88.3792 762.394 88.3792Z" stroke="#838996" stroke-miterlimit="10"/>
<path d="M147.854 36.4739H112.117C109.408 36.4739 107.212 38.6722 107.212 41.3839V75.4028C107.212 78.1145 109.408 80.3128 112.117 80.3128H147.854C150.563 80.3128 152.759 78.1145 152.759 75.4028V41.3839C152.759 38.6722 150.563 36.4739 147.854 36.4739Z" stroke="#838996" stroke-miterlimit="10"/>
<path d="M201.285 36.4739H165.547C162.838 36.4739 160.642 38.6722 160.642 41.3839V75.4028C160.642 78.1145 162.838 80.3128 165.547 80.3128H201.285C203.994 80.3128 206.19 78.1145 206.19 75.4028V41.3839C206.19 38.6722 203.994 36.4739 201.285 36.4739Z" stroke="#838996" stroke-miterlimit="10"/>
<path d="M254.715 36.4739H218.978C216.269 36.4739 214.073 38.6722 214.073 41.3839V75.4028C214.073 78.1145 216.269 80.3128 218.978 80.3128H254.715C257.424 80.3128 259.62 78.1145 259.62 75.4028V41.3839C259.62 38.6722 257.424 36.4739 254.715 36.4739Z" stroke="#838996" stroke-miterlimit="10"/>
<path d="M308.146 36.4739H272.409C269.7 36.4739 267.504 38.6722 267.504 41.3839V75.4028C267.504 78.1145 269.7 80.3128 272.409 80.3128H308.146C310.855 80.3128 313.051 78.1145 313.051 75.4028V41.3839C313.051 38.6722 310.855 36.4739 308.146 36.4739Z" stroke="#838996" stroke-miterlimit="10"/>
<path d="M361.577 36.4739H325.839C323.13 36.4739 320.934 38.6722 320.934 41.3839V75.4028C320.934 78.1145 323.13 80.3128 325.839 80.3128H361.577C364.286 80.3128 366.482 78.1145 366.482 75.4028V41.3839C366.482 38.6722 364.286 36.4739 361.577 36.4739Z" stroke="#838996" stroke-miterlimit="10"/>
<path d="M415.007 36.4739H379.27C376.561 36.4739 374.365 38.6722 374.365 41.3839V75.4028C374.365 78.1145 376.561 80.3128 379.27 80.3128H415.007C417.716 80.3128 419.912 78.1145 419.912 75.4028V41.3839C419.912 38.6722 417.716 36.4739 415.007 36.4739Z" stroke="#838996" stroke-miterlimit="10"/>
<path d="M468.438 36.4739H432.701C429.992 36.4739 427.796 38.6722 427.796 41.3839V75.4028C427.796 78.1145 429.992 80.3128 432.701 80.3128H468.438C471.147 80.3128 473.343 78.1145 473.343 75.4028V41.3839C473.343 38.6722 471.147 36.4739 468.438 36.4739Z" stroke="#838996" stroke-miterlimit="10"/>
<path d="M521.869 36.4739H486.131C483.422 36.4739 481.226 38.6722 481.226 41.3839V75.4028C481.226 78.1145 483.422 80.3128 486.131 80.3128H521.869C524.578 80.3128 526.774 78.1145 526.774 75.4028V41.3839C526.774 38.6722 524.578 36.4739 521.869 36.4739Z" stroke="#838996" stroke-miterlimit="10"/>
<path d="M575.299 36.4739H539.562C536.853 36.4739 534.657 38.6722 534.657 41.3839V75.4028C534.657 78.1145 536.853 80.3128 539.562 80.3128H575.299C578.008 80.3128 580.204 78.1145 580.204 75.4028V41.3839C580.204 38.6722 578.008 36.4739 575.299 36.4739Z" stroke="#838996" stroke-miterlimit="10"/>
<path d="M628.73 36.4739H592.993C590.284 36.4739 588.088 38.6722 588.088 41.3839V75.4028C588.088 78.1145 590.284 80.3128 592.993 80.3128H628.73C631.439 80.3128 633.635 78.1145 633.635 75.4028V41.3839C633.635 38.6722 631.439 36.4739 628.73 36.4739Z" stroke="#838996" stroke-miterlimit="10"/>
<path d="M682.161 36.4739H646.423C643.714 36.4739 641.518 38.6722 641.518 41.3839V75.4028C641.518 78.1145 643.714 80.3128 646.423 80.3128H682.161C684.87 80.3128 687.066 78.1145 687.066 75.4028V41.3839C687.066 38.6722 684.87 36.4739 682.161 36.4739Z" stroke="#838996" stroke-miterlimit="10"/>
<path d="M762.745 36.4739H699.854C697.145 36.4739 694.949 38.6722 694.949 41.3839V75.4028C694.949 78.1145 697.145 80.3128 699.854 80.3128H762.745C765.454 80.3128 767.65 78.1145 767.65 75.4028V41.3839C767.65 38.6722 765.454 36.4739 762.745 36.4739Z" stroke="#838996" stroke-miterlimit="10"/>
<path d="M98.4526 0.350708H60.6131C57.9041 0.350708 55.708 2.54897 55.708 5.26066V23.1469C55.708 25.8586 57.9041 28.0569 60.6131 28.0569H98.4526C101.162 28.0569 103.358 25.8586 103.358 23.1469V5.26066C103.358 2.54897 101.162 0.350708 98.4526 0.350708Z" stroke="#838996" stroke-miterlimit="10"/>
<path d="M153.81 0.350708H115.971C113.262 0.350708 111.066 2.54897 111.066 5.26066V23.1469C111.066 25.8586 113.262 28.0569 115.971 28.0569H153.81C156.519 28.0569 158.715 25.8586 158.715 23.1469V5.26066C158.715 2.54897 156.519 0.350708 153.81 0.350708Z" stroke="#838996" stroke-miterlimit="10"/>
<path d="M209.168 0.350708H171.328C168.619 0.350708 166.423 2.54897 166.423 5.26066V23.1469C166.423 25.8586 168.619 28.0569 171.328 28.0569H209.168C211.877 28.0569 214.073 25.8586 214.073 23.1469V5.26066C214.073 2.54897 211.877 0.350708 209.168 0.350708Z" stroke="#838996" stroke-miterlimit="10"/>
<path d="M264.526 0.350708H226.686C223.977 0.350708 221.781 2.54897 221.781 5.26066V23.1469C221.781 25.8586 223.977 28.0569 226.686 28.0569H264.526C267.235 28.0569 269.431 25.8586 269.431 23.1469V5.26066C269.431 2.54897 267.235 0.350708 264.526 0.350708Z" stroke="#838996" stroke-miterlimit="10"/>
<path d="M319.883 0.350708H282.044C279.335 0.350708 277.139 2.54897 277.139 5.26066V23.1469C277.139 25.8586 279.335 28.0569 282.044 28.0569H319.883C322.592 28.0569 324.788 25.8586 324.788 23.1469V5.26066C324.788 2.54897 322.592 0.350708 319.883 0.350708Z" stroke="#838996" stroke-miterlimit="10"/>
<path d="M375.241 0.350708H337.401C334.692 0.350708 332.496 2.54897 332.496 5.26066V23.1469C332.496 25.8586 334.692 28.0569 337.401 28.0569H375.241C377.95 28.0569 380.146 25.8586 380.146 23.1469V5.26066C380.146 2.54897 377.95 0.350708 375.241 0.350708Z" stroke="#838996" stroke-miterlimit="10"/>
<path d="M430.599 0.350708H392.759C390.05 0.350708 387.854 2.54897 387.854 5.26066V23.1469C387.854 25.8586 390.05 28.0569 392.759 28.0569H430.599C433.308 28.0569 435.504 25.8586 435.504 23.1469V5.26066C435.504 2.54897 433.308 0.350708 430.599 0.350708Z" stroke="#838996" stroke-miterlimit="10"/>
<path d="M485.956 0.350708H448.117C445.408 0.350708 443.212 2.54897 443.212 5.26066V23.1469C443.212 25.8586 445.408 28.0569 448.117 28.0569H485.956C488.665 28.0569 490.861 25.8586 490.861 23.1469V5.26066C490.861 2.54897 488.665 0.350708 485.956 0.350708Z" stroke="#838996" stroke-miterlimit="10"/>
<path d="M541.314 0.350708H503.475C500.765 0.350708 498.569 2.54897 498.569 5.26066V23.1469C498.569 25.8586 500.765 28.0569 503.475 28.0569H541.314C544.023 28.0569 546.219 25.8586 546.219 23.1469V5.26066C546.219 2.54897 544.023 0.350708 541.314 0.350708Z" stroke="#838996" stroke-miterlimit="10"/>
<path d="M596.672 0.350708H558.832C556.123 0.350708 553.927 2.54897 553.927 5.26066V23.1469C553.927 25.8586 556.123 28.0569 558.832 28.0569H596.672C599.381 28.0569 601.577 25.8586 601.577 23.1469V5.26066C601.577 2.54897 599.381 0.350708 596.672 0.350708Z" stroke="#838996" stroke-miterlimit="10"/>
<path d="M652.029 0.350708H614.19C611.481 0.350708 609.285 2.54897 609.285 5.26066V23.1469C609.285 25.8586 611.481 28.0569 614.19 28.0569H652.029C654.738 28.0569 656.934 25.8586 656.934 23.1469V5.26066C656.934 2.54897 654.738 0.350708 652.029 0.350708Z" stroke="#838996" stroke-miterlimit="10"/>
<path d="M707.387 0.350708H669.547C666.838 0.350708 664.642 2.54897 664.642 5.26066V23.1469C664.642 25.8586 666.838 28.0569 669.547 28.0569H707.387C710.096 28.0569 712.292 25.8586 712.292 23.1469V5.26066C712.292 2.54897 710.096 0.350708 707.387 0.350708Z" stroke="#838996" stroke-miterlimit="10"/>
<path d="M762.745 0.350708H724.905C722.196 0.350708 720 2.54897 720 5.26066V23.1469C720 25.8586 722.196 28.0569 724.905 28.0569H762.745C765.454 28.0569 767.65 25.8586 767.65 23.1469V5.26066C767.65 2.54897 765.454 0.350708 762.745 0.350708Z" stroke="#838996" stroke-miterlimit="10"/>
<path d="M713.869 270.075H668.321V270.377H713.869V270.075Z" stroke="#F2F2F4" stroke-miterlimit="10"/>
</svg>
