<svg width="168" height="296" viewBox="0 0 168 296" fill="none" xmlns="http://www.w3.org/2000/svg">
<path d="M34.6673 4.69909C39.6367 2.64763 45.2786 1.59468 52.8312 1.05753C60.2875 0.527221 69.5728 0.501286 81.8774 0.500038V25.3961C76.3351 26.2991 72.1038 31.0933 72.1038 36.8754V67.489C72.1038 73.2711 76.3351 78.0654 81.8774 78.9684V119.575H0.5V83.4916C0.5 70.5173 0.500273 60.8117 1.03024 53.0705C1.5599 45.3337 2.61695 39.5956 4.71297 34.5524C10.3303 21.0366 21.105 10.2979 34.6673 4.69909ZM95.4434 36.8754C95.4434 31.0933 91.212 26.2991 85.6698 25.3961V0.500038C97.9743 0.501286 107.26 0.527221 114.716 1.05753C122.269 1.59468 127.91 2.64763 132.88 4.69909C146.442 10.2979 157.217 21.0366 162.834 34.5524C164.93 39.5956 165.987 45.3337 166.517 53.0705C167.047 60.8117 167.047 70.5173 167.047 83.4916V119.575H85.6698V78.9684C91.212 78.0654 95.4434 73.2711 95.4434 67.489V36.8754Z" fill="white" fill-opacity="0.1" stroke="#F2F2F4"/>
<rect x="75.8964" y="29.0262" width="15.7547" height="45.6161" rx="7.87736" fill="#F2F2F4" stroke="#F2F2F4"/>
<mask id="path-3-inside-1" fill="white">
<path fill-rule="evenodd" clip-rule="evenodd" d="M0 123.566V212.226C0 215.73 0 217.482 0.0548934 218.963C1.60627 260.82 35.1804 294.394 77.0369 295.945C78.5179 296 80.2698 296 83.7736 296C87.2774 296 89.0292 296 90.5103 295.945C132.367 294.394 165.941 260.82 167.492 218.963C167.547 217.482 167.547 215.73 167.547 212.227V123.566H0Z"/>
</mask>
<path d="M0 123.566V122.566H-1V123.566H0ZM0.0548934 218.963L-0.94442 219L0.0548934 218.963ZM77.0369 295.945L77.0739 294.946L77.0369 295.945ZM90.5103 295.945L90.4732 294.946L90.5103 295.945ZM167.492 218.963L168.492 219V219L167.492 218.963ZM167.547 123.566H168.547V122.566H167.547V123.566ZM1 212.226V123.566H-1V212.226H1ZM1.05421 218.926C1.00017 217.468 1 215.739 1 212.226H-1C-1 215.721 -1.00017 217.496 -0.94442 219L1.05421 218.926ZM77.0739 294.946C35.7406 293.414 2.58619 260.259 1.05421 218.926L-0.94442 219C0.626348 261.38 34.6201 295.374 76.9999 296.944L77.0739 294.946ZM83.7736 295C80.2609 295 78.5318 295 77.0739 294.946L76.9999 296.944C78.5041 297 80.2788 297 83.7736 297V295ZM90.4732 294.946C89.0154 295 87.2863 295 83.7736 295V297C87.2684 297 89.0431 297 90.5473 296.944L90.4732 294.946ZM166.493 218.926C164.961 260.259 131.807 293.414 90.4732 294.946L90.5473 296.944C132.927 295.374 166.921 261.38 168.492 219L166.493 218.926ZM166.547 212.227C166.547 215.739 166.547 217.468 166.493 218.926L168.492 219C168.547 217.496 168.547 215.721 168.547 212.227H166.547ZM166.547 123.566V212.227H168.547V123.566H166.547ZM167.547 122.566H0V124.566H167.547V122.566Z" fill="#838996" mask="url(#path-3-inside-1)"/>
</svg>
